<svg xmlns="http://www.w3.org/2000/svg" xmlns:xlink="http://www.w3.org/1999/xlink" width="192" zoomAndPan="magnify" viewBox="0 0 144 143.999998" height="192" preserveAspectRatio="xMidYMid meet" version="1.0"><defs><clipPath id="c7546537a0"><path d="M 0 124 L 144 124 L 144 135.691406 L 0 135.691406 Z M 0 124 " clip-rule="nonzero"/></clipPath><clipPath id="d13d98e5bb"><path d="M 30 33.691406 L 110 33.691406 L 110 60 L 30 60 Z M 30 33.691406 " clip-rule="nonzero"/></clipPath><clipPath id="3bedfb34f1"><path d="M 27 33.691406 L 97 33.691406 L 97 51 L 27 51 Z M 27 33.691406 " clip-rule="nonzero"/></clipPath><clipPath id="244f4ac40f"><path d="M 81 33.691406 L 111 33.691406 L 111 60 L 81 60 Z M 81 33.691406 " clip-rule="nonzero"/></clipPath></defs><g clip-path="url(#c7546537a0)"><path fill="#cfd8dc" d="M 72 135.683594 C 111.636719 135.683594 143.960938 133.238281 143.960938 130.238281 C 143.960938 127.242188 111.636719 124.796875 72 124.796875 C 32.367188 124.796875 0.0429688 127.242188 0.0429688 130.238281 C 0.0429688 133.238281 32.367188 135.683594 72 135.683594 " fill-opacity="1" fill-rule="evenodd"/></g><path fill="#c5ca1e" d="M 65.886719 53.640625 L 119.675781 53.640625 C 126.671875 53.640625 132.394531 59.351562 132.394531 66.335938 C 132.394531 73.316406 126.671875 79.027344 119.675781 79.027344 L 65.886719 79.027344 C 58.890625 79.027344 53.164062 73.316406 53.164062 66.335938 C 53.164062 59.351562 58.890625 53.640625 65.886719 53.640625 " fill-opacity="1" fill-rule="evenodd"/><path fill="#d4dd20" d="M 62.917969 53.640625 L 119.675781 53.640625 C 119.699219 53.640625 119.726562 53.640625 119.753906 53.640625 C 115.800781 53.6875 112.136719 55.238281 109.390625 57.730469 C 106.589844 60.269531 104.738281 63.792969 104.507812 67.703125 C 104.433594 68.917969 105.363281 69.960938 106.582031 70.03125 L 52.75 70.035156 C 51.628906 70.035156 50.679688 69.539062 50.382812 68.382812 C 50.191406 67.640625 50.175781 66.6875 50.203125 65.90625 C 50.429688 59.121094 56.066406 53.640625 62.917969 53.640625 " fill-opacity="1" fill-rule="evenodd"/><path fill="#a6a41c" d="M 117.011719 67.703125 C 117.085938 66.488281 118.128906 65.558594 119.347656 65.632812 C 120.566406 65.703125 121.496094 66.746094 121.421875 67.960938 C 121.421875 68 121.425781 67.9375 121.425781 68.003906 C 121.425781 68.167969 121.488281 68.308594 121.585938 68.410156 C 121.703125 68.53125 121.882812 68.609375 122.101562 68.621094 C 122.132812 68.621094 122.089844 68.617188 122.167969 68.617188 C 122.464844 68.617188 122.738281 68.503906 122.941406 68.320312 C 123.128906 68.148438 123.25 67.929688 123.265625 67.703125 C 123.265625 67.683594 123.265625 67.609375 123.265625 67.484375 C 123.265625 66.566406 122.910156 65.746094 122.316406 65.140625 C 121.707031 64.515625 120.835938 64.113281 119.835938 64.054688 C 119.800781 64.050781 119.714844 64.050781 119.574219 64.050781 C 118.414062 64.050781 117.339844 64.5 116.535156 65.226562 C 115.75 65.9375 115.234375 66.90625 115.171875 67.960938 C 115.167969 68.039062 115.164062 68.167969 115.164062 68.351562 C 115.164062 70.023438 115.816406 71.527344 116.902344 72.636719 C 118.007812 73.765625 119.566406 74.496094 121.355469 74.601562 C 121.453125 74.605469 121.601562 74.609375 121.808594 74.609375 C 123.832031 74.609375 125.710938 73.824219 127.113281 72.554688 C 128.496094 71.300781 129.40625 69.585938 129.519531 67.703125 C 129.527344 67.566406 129.53125 67.378906 129.53125 67.140625 C 129.53125 64.710938 128.578125 62.527344 127 60.914062 C 125.402344 59.28125 123.152344 58.226562 120.578125 58.074219 C 120.417969 58.0625 120.203125 58.058594 119.929688 58.058594 C 117.042969 58.058594 114.363281 59.179688 112.367188 60.988281 C 110.386719 62.785156 109.078125 65.253906 108.917969 67.960938 C 108.847656 69.175781 107.800781 70.105469 106.582031 70.03125 C 105.363281 69.960938 104.433594 68.917969 104.507812 67.703125 C 104.738281 63.792969 106.589844 60.269531 109.390625 57.730469 C 112.175781 55.203125 115.910156 53.640625 119.929688 53.640625 C 120.179688 53.640625 120.484375 53.652344 120.839844 53.671875 C 124.546875 53.890625 127.816406 55.445312 130.164062 57.84375 C 132.535156 60.257812 133.957031 63.523438 133.957031 67.140625 C 133.957031 67.359375 133.949219 67.632812 133.929688 67.960938 C 133.746094 71.042969 132.289062 73.820312 130.085938 75.816406 C 127.898438 77.800781 124.964844 79.027344 121.808594 79.027344 C 121.625 79.027344 121.386719 79.019531 121.097656 79 C 118.171875 78.828125 115.59375 77.601562 113.738281 75.707031 C 111.863281 73.796875 110.734375 71.214844 110.734375 68.351562 C 110.734375 68.191406 110.742188 67.972656 110.757812 67.703125 C 110.894531 65.449219 111.953125 63.421875 113.5625 61.964844 C 115.152344 60.523438 117.28125 59.632812 119.574219 59.632812 C 119.695312 59.632812 119.867188 59.640625 120.09375 59.652344 C 122.230469 59.777344 124.121094 60.679688 125.484375 62.070312 C 126.863281 63.476562 127.695312 65.378906 127.695312 67.484375 C 127.695312 67.589844 127.6875 67.746094 127.675781 67.960938 C 127.59375 69.386719 126.925781 70.667969 125.917969 71.582031 C 124.925781 72.480469 123.597656 73.035156 122.167969 73.035156 C 122.113281 73.035156 122.003906 73.03125 121.84375 73.023438 C 120.488281 72.941406 119.289062 72.367188 118.421875 71.480469 C 117.53125 70.574219 117 69.355469 117 68.003906 C 117 67.957031 117.003906 67.859375 117.011719 67.703125 " fill-opacity="1" fill-rule="evenodd"/><g clip-path="url(#d13d98e5bb)"><path fill="#fdcf27" d="M 42.921875 33.691406 L 96.710938 33.691406 C 103.707031 33.691406 109.433594 39.402344 109.433594 46.382812 C 109.433594 53.363281 103.707031 59.078125 96.710938 59.078125 L 42.921875 59.078125 C 35.925781 59.078125 30.199219 53.363281 30.199219 46.382812 C 30.199219 39.402344 35.925781 33.691406 42.921875 33.691406 " fill-opacity="1" fill-rule="evenodd"/></g><g clip-path="url(#3bedfb34f1)"><path fill="#ffe22b" d="M 39.953125 33.691406 L 96.710938 33.691406 C 96.734375 33.691406 96.761719 33.691406 96.789062 33.691406 C 92.835938 33.738281 89.171875 35.289062 86.425781 37.777344 C 83.625 40.316406 81.773438 43.84375 81.542969 47.753906 C 81.46875 48.96875 82.398438 50.011719 83.617188 50.082031 L 29.785156 50.085938 C 28.664062 50.085938 27.71875 49.589844 27.417969 48.429688 C 27.226562 47.6875 27.214844 46.734375 27.238281 45.957031 C 27.464844 39.171875 33.101562 33.691406 39.953125 33.691406 " fill-opacity="1" fill-rule="evenodd"/></g><g clip-path="url(#244f4ac40f)"><path fill="#f0ad25" d="M 94.046875 47.753906 C 94.121094 46.535156 95.164062 45.609375 96.382812 45.679688 C 97.601562 45.753906 98.53125 46.796875 98.457031 48.011719 C 98.457031 48.050781 98.460938 47.988281 98.460938 48.054688 C 98.460938 48.214844 98.523438 48.359375 98.621094 48.457031 C 98.738281 48.578125 98.917969 48.65625 99.136719 48.671875 C 99.167969 48.671875 99.125 48.667969 99.203125 48.667969 C 99.5 48.667969 99.773438 48.554688 99.976562 48.367188 C 100.164062 48.199219 100.289062 47.980469 100.300781 47.753906 C 100.300781 47.734375 100.300781 47.660156 100.300781 47.535156 C 100.300781 46.617188 99.945312 45.796875 99.351562 45.191406 C 98.742188 44.566406 97.871094 44.160156 96.871094 44.101562 C 96.835938 44.101562 96.75 44.097656 96.609375 44.097656 C 95.449219 44.097656 94.375 44.550781 93.570312 45.277344 C 92.785156 45.988281 92.269531 46.957031 92.207031 48.011719 C 92.203125 48.085938 92.199219 48.21875 92.199219 48.402344 C 92.199219 50.074219 92.851562 51.578125 93.9375 52.6875 C 95.042969 53.8125 96.601562 54.542969 98.390625 54.648438 C 98.488281 54.65625 98.636719 54.660156 98.84375 54.660156 C 100.867188 54.660156 102.746094 53.875 104.148438 52.605469 C 105.53125 51.351562 106.441406 49.632812 106.554688 47.753906 C 106.5625 47.617188 106.566406 47.429688 106.566406 47.1875 C 106.566406 44.761719 105.613281 42.574219 104.035156 40.964844 C 102.4375 39.332031 100.1875 38.273438 97.613281 38.121094 C 97.453125 38.113281 97.238281 38.109375 96.964844 38.109375 C 94.078125 38.109375 91.398438 39.230469 89.402344 41.039062 C 87.421875 42.835938 86.113281 45.300781 85.953125 48.011719 C 85.882812 49.226562 84.835938 50.152344 83.617188 50.082031 C 82.398438 50.011719 81.46875 48.96875 81.542969 47.753906 C 81.773438 43.84375 83.625 40.316406 86.425781 37.777344 C 89.210938 35.253906 92.945312 33.691406 96.964844 33.691406 C 97.21875 33.691406 97.519531 33.699219 97.875 33.722656 C 101.582031 33.941406 104.851562 35.492188 107.199219 37.890625 C 109.570312 40.308594 110.992188 43.570312 110.992188 47.1875 C 110.992188 47.40625 110.984375 47.679688 110.964844 48.011719 C 110.78125 51.09375 109.328125 53.867188 107.121094 55.867188 C 104.933594 57.851562 102.003906 59.078125 98.84375 59.078125 C 98.660156 59.078125 98.421875 59.066406 98.132812 59.050781 C 95.207031 58.878906 92.628906 57.652344 90.773438 55.757812 C 88.898438 53.84375 87.769531 51.261719 87.769531 48.402344 C 87.769531 48.238281 87.777344 48.023438 87.796875 47.753906 C 87.929688 45.5 88.988281 43.46875 90.597656 42.015625 C 92.1875 40.574219 94.316406 39.679688 96.609375 39.679688 C 96.730469 39.679688 96.902344 39.6875 97.128906 39.703125 C 99.265625 39.828125 101.15625 40.726562 102.519531 42.117188 C 103.898438 43.527344 104.730469 45.429688 104.730469 47.535156 C 104.730469 47.640625 104.726562 47.796875 104.710938 48.011719 C 104.628906 49.4375 103.960938 50.714844 102.953125 51.628906 C 101.960938 52.53125 100.632812 53.085938 99.203125 53.085938 C 99.148438 53.085938 99.039062 53.082031 98.878906 53.070312 C 97.523438 52.992188 96.324219 52.417969 95.457031 51.53125 C 94.570312 50.625 94.035156 49.40625 94.035156 48.054688 C 94.035156 48.007812 94.039062 47.90625 94.046875 47.753906 " fill-opacity="1" fill-rule="evenodd"/></g><path fill="#ea5d74" d="M 25.738281 53.640625 L 79.523438 53.640625 C 86.523438 53.640625 92.246094 59.351562 92.246094 66.335938 C 92.246094 73.316406 86.523438 79.027344 79.523438 79.027344 L 25.738281 79.027344 C 18.742188 79.027344 13.015625 73.316406 13.015625 66.335938 C 13.015625 59.351562 18.742188 53.640625 25.738281 53.640625 " fill-opacity="1" fill-rule="evenodd"/><path fill="#fd6f7b" d="M 22.769531 53.640625 L 79.523438 53.640625 C 79.550781 53.640625 79.578125 53.640625 79.605469 53.640625 C 75.652344 53.6875 71.988281 55.238281 69.242188 57.730469 C 66.441406 60.269531 64.589844 63.792969 64.359375 67.703125 C 64.285156 68.917969 65.214844 69.960938 66.433594 70.03125 L 12.601562 70.035156 C 11.480469 70.035156 10.53125 69.539062 10.234375 68.382812 C 10.042969 67.640625 10.027344 66.6875 10.054688 65.90625 C 10.28125 59.121094 15.914062 53.640625 22.769531 53.640625 " fill-opacity="1" fill-rule="evenodd"/><path fill="#d54d6c" d="M 76.863281 67.703125 C 76.933594 66.488281 77.980469 65.558594 79.199219 65.632812 C 80.417969 65.703125 81.347656 66.746094 81.273438 67.960938 C 81.273438 68 81.277344 67.9375 81.277344 68.003906 C 81.277344 68.167969 81.339844 68.308594 81.4375 68.410156 C 81.554688 68.53125 81.734375 68.609375 81.953125 68.621094 C 81.984375 68.621094 81.941406 68.617188 82.015625 68.617188 C 82.3125 68.617188 82.589844 68.503906 82.792969 68.320312 C 82.980469 68.148438 83.101562 67.929688 83.117188 67.703125 C 83.117188 67.683594 83.117188 67.609375 83.117188 67.484375 C 83.117188 66.566406 82.761719 65.746094 82.167969 65.140625 C 81.558594 64.515625 80.6875 64.113281 79.683594 64.054688 C 79.652344 64.050781 79.566406 64.050781 79.425781 64.050781 C 78.265625 64.050781 77.1875 64.5 76.386719 65.226562 C 75.601562 65.9375 75.085938 66.90625 75.023438 67.960938 C 75.015625 68.039062 75.015625 68.167969 75.015625 68.351562 C 75.015625 70.023438 75.667969 71.527344 76.753906 72.636719 C 77.859375 73.765625 79.417969 74.496094 81.207031 74.601562 C 81.300781 74.605469 81.453125 74.609375 81.660156 74.609375 C 83.683594 74.609375 85.5625 73.824219 86.960938 72.554688 C 88.347656 71.300781 89.257812 69.585938 89.371094 67.703125 C 89.378906 67.566406 89.382812 67.378906 89.382812 67.140625 C 89.382812 64.710938 88.429688 62.527344 86.851562 60.914062 C 85.253906 59.28125 83.003906 58.226562 80.429688 58.074219 C 80.269531 58.0625 80.054688 58.058594 79.78125 58.058594 C 76.894531 58.058594 74.214844 59.179688 72.21875 60.988281 C 70.234375 62.785156 68.929688 65.253906 68.769531 67.960938 C 68.695312 69.175781 67.652344 70.105469 66.433594 70.03125 C 65.214844 69.960938 64.285156 68.917969 64.359375 67.703125 C 64.589844 63.792969 66.441406 60.269531 69.242188 57.730469 C 72.027344 55.203125 75.761719 53.640625 79.78125 53.640625 C 80.03125 53.640625 80.335938 53.652344 80.691406 53.671875 C 84.398438 53.890625 87.667969 55.445312 90.015625 57.84375 C 92.382812 60.257812 93.808594 63.523438 93.808594 67.140625 C 93.808594 67.359375 93.800781 67.632812 93.78125 67.960938 C 93.597656 71.042969 92.140625 73.820312 89.9375 75.816406 C 87.75 77.800781 84.816406 79.027344 81.660156 79.027344 C 81.476562 79.027344 81.238281 79.019531 80.945312 79 C 78.023438 78.828125 75.445312 77.601562 73.589844 75.707031 C 71.714844 73.796875 70.585938 71.214844 70.585938 68.351562 C 70.585938 68.191406 70.59375 67.972656 70.609375 67.703125 C 70.746094 65.449219 71.804688 63.421875 73.410156 61.964844 C 75 60.523438 77.132812 59.632812 79.425781 59.632812 C 79.546875 59.632812 79.71875 59.640625 79.945312 59.652344 C 82.082031 59.777344 83.972656 60.679688 85.335938 62.070312 C 86.714844 63.476562 87.546875 65.378906 87.546875 67.484375 C 87.546875 67.589844 87.539062 67.746094 87.527344 67.960938 C 87.441406 69.386719 86.777344 70.667969 85.769531 71.582031 C 84.777344 72.480469 83.449219 73.035156 82.015625 73.035156 C 81.960938 73.035156 81.855469 73.03125 81.691406 73.023438 C 80.339844 72.941406 79.140625 72.367188 78.269531 71.480469 C 77.382812 70.574219 76.847656 69.355469 76.847656 68.003906 C 76.847656 67.957031 76.855469 67.859375 76.863281 67.703125 " fill-opacity="1" fill-rule="evenodd"/><path fill="#ee87d2" d="M 120 131.304688 L 25.195312 131.304688 C 17.992188 131.304688 12.097656 125.421875 12.097656 118.234375 C 12.097656 111.046875 17.992188 105.167969 25.195312 105.167969 L 120 105.167969 C 127.203125 105.167969 133.097656 111.046875 133.097656 118.234375 C 133.097656 125.421875 127.203125 131.304688 120 131.304688 " fill-opacity="1" fill-rule="evenodd"/><path fill="#f994e0" d="M 10.066406 116.820312 C 10.777344 110.289062 16.363281 105.167969 23.085938 105.167969 L 117.890625 105.167969 C 117.898438 105.167969 117.90625 105.167969 117.914062 105.167969 L 67.988281 105.167969 C 61.820312 105.167969 56.402344 109.6875 55.210938 115.714844 C 55.011719 116.722656 54.789062 117.628906 55.417969 118.515625 C 55.867188 119.152344 56.609375 119.566406 57.449219 119.566406 L 12.636719 119.566406 C 11.738281 119.566406 10.992188 119.269531 10.457031 118.515625 C 10.082031 117.988281 10 117.445312 10.066406 116.820312 " fill-opacity="1" fill-rule="evenodd"/><path fill="#db70b9" d="M 94.09375 105.167969 L 120 105.167969 C 123.605469 105.167969 126.882812 106.636719 129.253906 109.003906 C 134.382812 114.117188 134.382812 122.351562 129.253906 127.46875 C 126.882812 129.835938 123.605469 131.304688 120 131.304688 C 103.625 131.304688 87.246094 131.304688 70.871094 131.304688 C 68.242188 131.304688 65.851562 130.234375 64.121094 128.507812 C 60.382812 124.777344 60.382812 118.769531 64.121094 115.039062 C 65.851562 113.3125 68.242188 112.242188 70.871094 112.242188 C 87.257812 112.242188 103.640625 112.253906 120.027344 112.253906 C 121.683594 112.253906 123.1875 112.925781 124.273438 114.011719 C 126.609375 116.34375 126.609375 120.15625 124.273438 122.488281 C 123.1875 123.574219 121.683594 124.246094 120.027344 124.246094 L 70.644531 124.246094 C 67.382812 124.246094 67.382812 119.292969 70.644531 119.292969 L 120.027344 119.292969 C 121.398438 119.292969 121.398438 117.207031 120.027344 117.207031 C 103.640625 117.207031 87.257812 117.195312 70.871094 117.195312 C 69.609375 117.195312 68.464844 117.710938 67.632812 118.542969 C 65.832031 120.335938 65.832031 123.210938 67.632812 125.003906 C 68.464844 125.835938 69.609375 126.351562 70.871094 126.351562 C 87.246094 126.351562 103.625 126.351562 120 126.351562 C 122.234375 126.351562 124.269531 125.4375 125.742188 123.964844 C 128.929688 120.785156 128.929688 115.6875 125.742188 112.503906 C 124.269531 111.03125 122.234375 110.121094 120 110.121094 L 68.917969 110.121094 C 65.390625 110.015625 60.621094 112.824219 60.007812 117.066406 C 60.007812 118.4375 58.816406 119.566406 57.449219 119.566406 C 56.609375 119.566406 55.867188 119.152344 55.417969 118.515625 C 54.789062 117.628906 55.011719 116.722656 55.210938 115.714844 C 56.402344 109.6875 61.820312 105.167969 67.988281 105.167969 L 94.09375 105.167969 " fill-opacity="1" fill-rule="evenodd"/><path fill="#6be2ff" d="M 120 105.167969 L 25.195312 105.167969 C 17.992188 105.167969 12.097656 99.285156 12.097656 92.097656 C 12.097656 84.910156 17.992188 79.027344 25.195312 79.027344 L 120 79.027344 C 127.203125 79.027344 133.097656 84.910156 133.097656 92.097656 C 133.097656 99.285156 127.203125 105.167969 120 105.167969 " fill-opacity="1" fill-rule="evenodd"/><path fill="#a8eeff" d="M 10.066406 90.679688 C 10.777344 84.152344 16.363281 79.027344 23.085938 79.027344 L 117.890625 79.027344 C 117.898438 79.027344 117.90625 79.027344 117.914062 79.027344 L 67.988281 79.027344 C 61.820312 79.027344 56.402344 83.550781 55.210938 89.574219 C 55.011719 90.582031 54.789062 91.488281 55.417969 92.378906 C 55.867188 93.011719 56.609375 93.425781 57.449219 93.425781 L 12.636719 93.425781 C 11.738281 93.425781 10.992188 93.128906 10.457031 92.378906 C 10.082031 91.851562 10 91.304688 10.066406 90.679688 " fill-opacity="1" fill-rule="evenodd"/><path fill="#35bfea" d="M 94.09375 79.027344 L 120 79.027344 C 123.605469 79.027344 126.882812 80.496094 129.253906 82.863281 C 134.382812 87.980469 134.382812 96.214844 129.253906 101.328125 C 126.882812 103.695312 123.605469 105.167969 120 105.167969 C 103.625 105.167969 87.246094 105.167969 70.871094 105.167969 C 68.242188 105.167969 65.851562 104.09375 64.121094 102.367188 C 60.382812 98.636719 60.382812 92.628906 64.121094 88.902344 C 65.851562 87.175781 68.242188 86.101562 70.871094 86.101562 C 87.257812 86.101562 103.640625 86.113281 120.027344 86.113281 C 121.683594 86.113281 123.1875 86.789062 124.273438 87.875 C 126.609375 90.207031 126.609375 94.015625 124.273438 96.347656 C 123.1875 97.433594 121.683594 98.109375 120.027344 98.109375 L 70.644531 98.109375 C 67.382812 98.109375 67.382812 93.15625 70.644531 93.15625 L 120.027344 93.15625 C 121.398438 93.15625 121.398438 91.066406 120.027344 91.066406 C 103.640625 91.066406 87.257812 91.054688 70.871094 91.054688 C 69.609375 91.054688 68.464844 91.570312 67.632812 92.402344 C 65.832031 94.195312 65.832031 97.070312 67.632812 98.867188 C 68.464844 99.695312 69.609375 100.210938 70.871094 100.210938 C 87.246094 100.210938 103.625 100.210938 120 100.210938 C 122.234375 100.210938 124.269531 99.300781 125.742188 97.828125 C 128.929688 94.644531 128.929688 89.546875 125.742188 86.367188 C 124.269531 84.894531 122.234375 83.980469 120 83.980469 L 68.917969 83.980469 C 65.390625 83.878906 60.621094 86.683594 60.007812 90.929688 C 60.007812 92.296875 58.816406 93.425781 57.449219 93.425781 C 56.609375 93.425781 55.867188 93.011719 55.417969 92.378906 C 54.789062 91.488281 55.011719 90.582031 55.210938 89.574219 C 56.402344 83.550781 61.820312 79.027344 67.988281 79.027344 L 94.09375 79.027344 " fill-opacity="1" fill-rule="evenodd"/></svg>