<svg xmlns="http://www.w3.org/2000/svg" xmlns:xlink="http://www.w3.org/1999/xlink" width="192" zoomAndPan="magnify" viewBox="0 0 144 143.999998" height="192" preserveAspectRatio="xMidYMid meet" version="1.0"><defs><clipPath id="b1894aaf71"><path d="M 24 128 L 51.855469 128 L 51.855469 143.921875 L 24 143.921875 Z M 24 128 " clip-rule="nonzero"/></clipPath></defs><path fill="#ffffff" d="M 37.902344 141.667969 C 43.886719 141.667969 48.761719 137.21875 49.074219 131.617188 C 50.40625 131.875 51.777344 132.007812 53.179688 132.007812 C 54.660156 132.007812 56.09375 131.851562 57.488281 131.5625 C 58.183594 134.042969 60.542969 135.871094 63.371094 135.871094 C 66.746094 135.871094 69.710938 136.488281 69.710938 136.488281 C 70.234375 136.488281 70.726562 136.402344 71.207031 136.285156 C 72.238281 138.140625 74.222656 139.425781 76.53125 139.425781 C 79.203125 139.425781 81.460938 137.726562 82.277344 135.382812 C 84.960938 135.023438 88.199219 133.277344 89.703125 130.925781 C 90.34375 129.921875 91.707031 129.703125 92.585938 130.503906 C 94.089844 131.882812 96.296875 133.386719 98.742188 133.386719 C 99.699219 133.386719 100.609375 133.191406 101.46875 132.894531 C 102.917969 136.699219 106.625 139.425781 110.996094 139.425781 C 115.367188 139.425781 119.066406 136.699219 120.523438 132.894531 C 121.375 133.191406 122.285156 133.386719 123.242188 133.386719 C 127.753906 133.386719 131.417969 129.789062 131.417969 125.347656 C 131.417969 122.566406 129.96875 120.144531 127.800781 118.703125 C 132.6875 116.527344 136.089844 111.644531 136.089844 105.957031 C 136.089844 104.941406 135.980469 103.953125 135.769531 103.003906 C 139.144531 102.292969 141.667969 99.308594 141.667969 95.726562 C 141.667969 91.621094 140.203125 88.292969 136.089844 88.292969 C 136.089844 88.292969 137.027344 84.210938 137.027344 81.320312 C 137.027344 77.628906 134.75 74.472656 131.523438 73.164062 C 130.378906 72.703125 129.867188 71.292969 130.464844 70.21875 C 131.089844 69.097656 131.449219 67.820312 131.449219 66.449219 C 131.449219 64.289062 130.582031 62.34375 129.179688 60.917969 C 130.355469 59.234375 130.863281 57.042969 130.261719 54.730469 C 129.570312 52.027344 127.269531 49.910156 124.535156 49.386719 C 120.53125 48.628906 116.972656 51.078125 115.953125 54.605469 C 115.742188 55.332031 114.765625 55.472656 114.316406 54.863281 C 113.140625 53.28125 111.90625 51.589844 109.320312 50.351562 C 110.417969 48.933594 111.386719 47.132812 111.386719 45.179688 C 111.386719 44.222656 111.199219 43.308594 110.894531 42.453125 C 114.695312 41.003906 117.417969 37.292969 117.417969 32.925781 C 117.417969 28.554688 114.695312 24.851562 110.894531 23.394531 C 111.199219 22.539062 111.386719 21.636719 111.386719 20.675781 C 111.386719 16.167969 107.785156 12.503906 103.347656 12.503906 C 100.5625 12.503906 98.140625 13.945312 96.691406 16.121094 C 94.527344 11.234375 89.640625 7.828125 83.953125 7.828125 C 82.941406 7.828125 81.953125 7.9375 81 8.148438 C 80.292969 4.777344 77.308594 2.25 73.726562 2.25 C 69.617188 2.25 66.292969 3.714844 66.292969 7.828125 C 66.292969 7.828125 62.210938 6.894531 59.320312 6.894531 C 55.71875 6.894531 52.644531 9.054688 51.273438 12.136719 C 50.710938 13.40625 49.207031 13.953125 47.96875 13.324219 C 46.910156 12.785156 45.714844 12.472656 44.445312 12.472656 C 42.289062 12.472656 40.339844 13.339844 38.921875 14.742188 C 37.234375 13.5625 35.042969 13.058594 32.722656 13.65625 C 30.121094 14.328125 28.03125 16.484375 27.4375 19.117188 C 26.613281 22.78125 28.507812 26.097656 31.476562 27.523438 C 29.941406 29.214844 28.964844 31.359375 28.804688 33.734375 C 28.203125 34.761719 27.671875 36.03125 27.277344 37.675781 C 23.621094 38.277344 20.289062 39.742188 17.578125 41.929688 C 16.492188 40.324219 14.601562 39.25 12.433594 39.25 C 9.0625 39.25 6.328125 41.84375 6.328125 45.046875 C 6.328125 47.898438 8.507812 50.257812 11.375 50.742188 C 10.742188 52.605469 10.402344 54.582031 10.402344 56.640625 C 10.402344 59.203125 10.9375 61.648438 11.898438 63.894531 C 8.5625 65.730469 6.328125 69.144531 6.328125 73.070312 C 6.328125 76.832031 8.390625 80.128906 11.5 82.015625 C 10.796875 83.402344 10.402344 84.953125 10.402344 86.59375 C 10.402344 87.828125 10.625 89.003906 11.03125 90.101562 C 10.222656 89.726562 9.324219 89.492188 8.359375 89.492188 C 4.984375 89.492188 2.25 92.089844 2.25 95.289062 C 2.25 97.984375 4.191406 100.222656 6.816406 100.875 C 6.496094 101.859375 6.328125 102.902344 6.328125 103.984375 C 6.328125 105.816406 6.808594 107.539062 7.667969 109.039062 C 4.558594 109.765625 2.25 112.40625 2.25 115.585938 C 2.25 119.128906 5.140625 122.011719 8.8125 122.292969 C 8.523438 123.226562 8.359375 124.21875 8.359375 125.246094 C 8.359375 131.113281 13.375 135.871094 19.570312 135.871094 C 22.390625 135.871094 24.96875 134.875 26.941406 133.238281 C 28 138.054688 32.503906 141.667969 37.902344 141.667969 " fill-opacity="1" fill-rule="nonzero"/><path fill="#d8d7d5" d="M 113.792969 53.976562 C 113.785156 53.976562 113.785156 53.984375 113.785156 53.984375 C 113.785156 53.984375 113.785156 53.976562 113.792969 53.976562 Z M 28.335938 129.148438 L 29.128906 132.75 C 29.988281 136.613281 33.679688 139.425781 37.902344 139.425781 C 42.65625 139.425781 46.582031 135.933594 46.832031 131.484375 L 46.980469 128.914062 L 49.503906 129.40625 C 51.949219 129.882812 54.496094 129.882812 57.035156 129.367188 L 59.085938 128.945312 L 59.648438 130.957031 C 60.089844 132.53125 61.625 133.621094 63.371094 133.621094 C 66.371094 133.621094 69.042969 134.082031 69.890625 134.238281 C 70.117188 134.222656 70.359375 134.175781 70.648438 134.105469 L 72.339844 133.675781 L 73.179688 135.195312 C 73.847656 136.417969 75.136719 137.171875 76.53125 137.171875 C 78.171875 137.171875 79.628906 136.160156 80.152344 134.640625 L 80.613281 133.332031 L 81.984375 133.152344 C 84.210938 132.859375 86.765625 131.347656 87.8125 129.71875 C 88.480469 128.667969 89.570312 127.964844 90.800781 127.800781 C 92.003906 127.636719 93.210938 128.027344 94.105469 128.84375 C 95.25 129.898438 96.980469 131.144531 98.742188 131.144531 C 99.371094 131.144531 100.019531 131.019531 100.726562 130.777344 L 102.785156 130.054688 L 103.5625 132.09375 C 104.726562 135.132812 107.714844 137.171875 110.996094 137.171875 C 114.277344 137.171875 117.261719 135.132812 118.421875 132.09375 L 119.199219 130.054688 L 121.265625 130.777344 C 121.972656 131.019531 122.621094 131.144531 123.242188 131.144531 C 126.507812 131.144531 129.164062 128.542969 129.164062 125.347656 C 129.164062 123.4375 128.191406 121.652344 126.554688 120.570312 L 123.140625 118.304688 L 126.882812 116.644531 C 131.113281 114.765625 133.847656 110.566406 133.847656 105.957031 C 133.847656 105.136719 133.753906 104.304688 133.574219 103.476562 L 133.097656 101.265625 L 135.3125 100.804688 C 137.695312 100.300781 139.425781 98.164062 139.425781 95.726562 C 139.425781 90.539062 137.003906 90.539062 136.089844 90.539062 L 133.277344 90.539062 L 133.902344 87.796875 C 133.910156 87.757812 134.773438 83.921875 134.773438 81.320312 C 134.773438 78.648438 133.167969 76.257812 130.675781 75.25 C 129.53125 74.785156 128.636719 73.839844 128.214844 72.65625 C 127.800781 71.480469 127.902344 70.195312 128.503906 69.128906 C 128.960938 68.292969 129.195312 67.390625 129.195312 66.449219 C 129.195312 64.960938 128.621094 63.558594 127.574219 62.492188 L 126.273438 61.167969 L 127.332031 59.640625 C 128.214844 58.367188 128.480469 56.828125 128.082031 55.292969 C 127.605469 53.4375 126.007812 51.957031 124.117188 51.597656 C 121.4375 51.09375 118.855469 52.652344 118.109375 55.230469 C 117.773438 56.382812 116.832031 57.230469 115.640625 57.441406 C 114.441406 57.660156 113.230469 57.183594 112.507812 56.203125 C 111.363281 54.660156 110.402344 53.367188 108.347656 52.378906 L 105.839844 51.171875 L 107.546875 48.972656 C 108.605469 47.609375 109.132812 46.332031 109.132812 45.179688 C 109.132812 44.546875 109.015625 43.902344 108.777344 43.191406 L 108.050781 41.136719 L 110.09375 40.347656 C 113.132812 39.1875 115.171875 36.210938 115.171875 32.925781 C 115.171875 29.644531 113.132812 26.660156 110.09375 25.5 L 108.050781 24.71875 L 108.777344 22.65625 C 109.015625 21.953125 109.132812 21.308594 109.132812 20.675781 C 109.132812 17.414062 106.539062 14.757812 103.347656 14.757812 C 101.4375 14.757812 99.652344 15.730469 98.570312 17.367188 L 96.304688 20.777344 L 94.644531 17.03125 C 92.429688 12.058594 86.953125 9.144531 81.476562 10.347656 L 79.265625 10.820312 L 78.804688 8.609375 C 78.296875 6.226562 76.164062 4.496094 73.726562 4.496094 C 68.535156 4.496094 68.535156 6.917969 68.535156 7.828125 L 68.535156 10.640625 L 65.792969 10.019531 C 65.753906 10.011719 61.921875 9.144531 59.320312 9.144531 C 56.734375 9.144531 54.378906 10.679688 53.328125 13.050781 C 52.804688 14.21875 51.816406 15.136719 50.609375 15.566406 C 49.410156 15.988281 48.078125 15.902344 46.941406 15.324219 C 44.851562 14.257812 42.195312 14.679688 40.488281 16.34375 L 39.164062 17.644531 L 37.636719 16.585938 C 36.367188 15.699219 34.824219 15.433594 33.289062 15.832031 C 31.507812 16.289062 30.035156 17.808594 29.636719 19.609375 C 28.996094 22.4375 30.585938 24.605469 32.449219 25.492188 L 35.167969 26.800781 L 33.140625 29.035156 C 31.894531 30.40625 31.171875 32.082031 31.054688 33.890625 L 31.015625 34.414062 L 30.742188 34.871094 C 30.199219 35.808594 29.785156 36.898438 29.464844 38.207031 L 29.113281 39.65625 L 27.640625 39.898438 C 24.378906 40.433594 21.386719 41.742188 18.984375 43.675781 L 17.085938 45.21875 L 15.714844 43.191406 C 14.996094 42.125 13.773438 41.492188 12.433594 41.492188 C 10.308594 41.492188 8.570312 43.089844 8.570312 45.046875 C 8.570312 46.753906 9.910156 48.21875 11.742188 48.519531 L 14.351562 48.957031 L 13.5 51.457031 C 12.933594 53.140625 12.644531 54.886719 12.644531 56.640625 C 12.644531 58.820312 13.089844 60.964844 13.960938 63.003906 L 14.757812 64.875 L 12.988281 65.855469 C 10.261719 67.367188 8.570312 70.125 8.570312 73.070312 C 8.570312 75.914062 10.105469 78.539062 12.667969 80.097656 L 14.445312 81.171875 L 13.507812 83.027344 C 12.941406 84.164062 12.644531 85.363281 12.644531 86.59375 C 12.644531 87.507812 12.816406 88.425781 13.144531 89.320312 L 15.027344 94.449219 L 10.082031 92.140625 C 7.433594 90.910156 4.496094 92.804688 4.496094 95.289062 C 4.496094 96.878906 5.671875 98.273438 7.355469 98.695312 L 9.691406 99.277344 L 8.953125 101.570312 C 8.703125 102.347656 8.570312 103.167969 8.570312 103.984375 C 8.570312 105.378906 8.929688 106.703125 9.621094 107.917969 L 11.109375 110.535156 L 8.179688 111.222656 C 6.015625 111.738281 4.496094 113.527344 4.496094 115.585938 C 4.496094 117.929688 6.425781 119.855469 8.984375 120.050781 L 11.78125 120.265625 L 10.960938 122.949219 C 10.726562 123.710938 10.609375 124.480469 10.609375 125.246094 C 10.609375 129.867188 14.625 133.621094 19.570312 133.621094 C 21.746094 133.621094 23.855469 132.875 25.5 131.507812 Z M 37.902344 143.921875 C 32.683594 143.921875 28 141 25.796875 136.652344 C 23.878906 137.609375 21.746094 138.125 19.570312 138.125 C 12.144531 138.125 6.109375 132.34375 6.109375 125.246094 C 6.109375 124.832031 6.132812 124.429688 6.179688 124.015625 C 2.570312 122.746094 0 119.402344 0 115.585938 C 0 112.304688 1.832031 109.375 4.675781 107.800781 C 4.277344 106.570312 4.074219 105.285156 4.074219 103.984375 C 4.074219 103.398438 4.113281 102.824219 4.199219 102.246094 C 1.652344 100.84375 0 98.210938 0 95.289062 C 0 90.917969 3.644531 87.34375 8.164062 87.25 C 8.15625 87.03125 8.148438 86.8125 8.148438 86.59375 C 8.148438 85.300781 8.351562 84.039062 8.75 82.816406 C 5.789062 80.386719 4.074219 76.855469 4.074219 73.070312 C 4.074219 69.128906 5.984375 65.417969 9.160156 62.996094 C 8.492188 60.933594 8.148438 58.804688 8.148438 56.640625 C 8.148438 55.144531 8.3125 53.664062 8.632812 52.207031 C 5.890625 50.867188 4.074219 48.140625 4.074219 45.046875 C 4.074219 40.605469 7.828125 37 12.433594 37 C 14.460938 37 16.375 37.699219 17.863281 38.9375 C 20.140625 37.449219 22.726562 36.359375 25.484375 35.738281 C 25.796875 34.761719 26.167969 33.875 26.613281 33.054688 C 26.808594 31.28125 27.371094 29.605469 28.273438 28.078125 C 25.664062 25.78125 24.449219 22.195312 25.242188 18.621094 C 26.019531 15.167969 28.742188 12.363281 32.160156 11.484375 C 34.40625 10.898438 36.664062 11.09375 38.6875 12.019531 C 41.65625 9.957031 45.714844 9.644531 48.988281 11.320312 L 51.273438 12.136719 L 49.222656 11.226562 C 50.992188 7.230469 54.957031 4.652344 59.320312 4.652344 C 60.980469 4.652344 62.949219 4.917969 64.453125 5.171875 C 65.550781 1.894531 68.855469 0 73.726562 0 C 77.550781 0 80.96875 2.273438 82.519531 5.640625 C 88.332031 5.09375 93.871094 7.789062 97.136719 12.386719 C 98.90625 11.023438 101.070312 10.261719 103.347656 10.261719 C 109.015625 10.261719 113.636719 14.933594 113.636719 20.675781 C 113.636719 21.175781 113.597656 21.675781 113.519531 22.171875 C 117.261719 24.378906 119.667969 28.476562 119.667969 32.925781 C 119.667969 37.371094 117.261719 41.480469 113.519531 43.675781 C 113.597656 44.183594 113.636719 44.679688 113.636719 45.179688 C 113.636719 46.652344 113.246094 48.140625 112.46875 49.621094 C 113.386719 50.304688 114.128906 51.039062 114.742188 51.761719 C 116.777344 48.304688 120.796875 46.386719 124.949219 47.179688 C 128.582031 47.859375 131.515625 50.609375 132.445312 54.167969 C 133.019531 56.40625 132.828125 58.671875 131.898438 60.691406 C 133.066406 62.367188 133.691406 64.359375 133.691406 66.449219 C 133.691406 68.085938 133.292969 69.703125 132.523438 71.144531 C 136.628906 72.882812 139.269531 76.863281 139.269531 81.320312 C 139.269531 82.980469 139.003906 84.953125 138.746094 86.457031 C 142.027344 87.5625 143.921875 90.855469 143.921875 95.726562 C 143.921875 99.550781 141.644531 102.972656 138.28125 104.53125 C 138.320312 105.003906 138.34375 105.480469 138.34375 105.957031 C 138.34375 111.246094 135.746094 116.136719 131.53125 119.144531 C 132.894531 120.90625 133.660156 123.070312 133.660156 125.347656 C 133.660156 131.507812 128.027344 136.480469 121.746094 135.523438 C 119.542969 139.269531 115.445312 141.667969 110.996094 141.667969 C 106.546875 141.667969 102.441406 139.269531 100.246094 135.523438 C 97.300781 135.972656 94.269531 134.96875 91.386719 132.453125 C 89.789062 134.734375 86.851562 136.628906 83.851562 137.367188 C 82.410156 139.984375 79.621094 141.667969 76.53125 141.667969 C 74.050781 141.667969 71.738281 140.570312 70.171875 138.722656 C 70.015625 138.730469 69.859375 138.738281 69.710938 138.738281 L 69.253906 138.691406 C 69.230469 138.683594 66.457031 138.125 63.371094 138.125 C 60.339844 138.125 57.597656 136.527344 56.132812 134.066406 C 54.394531 134.292969 52.667969 134.3125 50.945312 134.152344 C 49.488281 139.792969 44.175781 143.921875 37.902344 143.921875 " fill-opacity="1" fill-rule="nonzero"/><g clip-path="url(#b1894aaf71)"><path fill="#d8d7d5" d="M 37.902344 143.921875 C 30.484375 143.921875 24.449219 138.140625 24.449219 131.042969 L 24.449219 128.789062 L 28.941406 128.789062 L 28.941406 131.042969 C 28.941406 135.664062 32.964844 139.425781 37.902344 139.425781 C 42.84375 139.425781 46.855469 135.664062 46.855469 131.042969 L 46.855469 128.789062 L 51.355469 128.789062 L 51.355469 131.042969 C 51.355469 138.140625 45.320312 143.921875 37.902344 143.921875 " fill-opacity="1" fill-rule="nonzero"/></g><path fill="#d8d7d5" d="M 17.234375 45.085938 L 14.40625 41.585938 L 16.160156 40.167969 C 20.234375 36.882812 25.421875 35.066406 30.773438 35.066406 L 33.019531 35.066406 L 33.019531 39.5625 L 30.773438 39.5625 C 26.449219 39.5625 22.257812 41.019531 18.984375 43.667969 L 17.234375 45.085938 " fill-opacity="1" fill-rule="nonzero"/><path fill="#d8d7d5" d="M 17.847656 74.488281 L 16.105469 73.070312 C 11.046875 68.957031 8.148438 62.964844 8.148438 56.640625 L 8.148438 54.386719 L 12.644531 54.386719 L 12.644531 56.640625 C 12.644531 61.609375 14.941406 66.324219 18.941406 69.574219 L 20.683594 70.992188 L 17.847656 74.488281 " fill-opacity="1" fill-rule="nonzero"/><path fill="#d8d7d5" d="M 78.617188 41.480469 L 76.652344 37.433594 L 78.679688 36.453125 C 81.375 35.144531 84.460938 34.746094 87.445312 35.324219 L 89.648438 35.746094 L 88.800781 40.160156 L 86.59375 39.742188 C 84.570312 39.351562 82.457031 39.617188 80.644531 40.496094 L 78.617188 41.480469 " fill-opacity="1" fill-rule="nonzero"/><path fill="#d8d7d5" d="M 70.710938 124.589844 L 68.457031 124.589844 C 65.550781 124.589844 62.730469 124.054688 60.066406 122.980469 L 57.980469 122.144531 L 59.65625 117.96875 L 61.742188 118.8125 C 63.871094 119.660156 66.128906 120.097656 68.457031 120.097656 L 70.710938 120.097656 L 70.710938 124.589844 " fill-opacity="1" fill-rule="nonzero"/><path fill="#d8d7d5" d="M 79.070312 91.167969 L 77.105469 90.078125 C 75.84375 89.382812 74.480469 88.839844 73.070312 88.464844 L 70.898438 87.894531 L 72.042969 83.550781 L 74.214844 84.117188 C 75.984375 84.585938 77.691406 85.269531 79.28125 86.144531 L 81.242188 87.234375 L 79.070312 91.167969 " fill-opacity="1" fill-rule="nonzero"/><path fill="#d8d7d5" d="M 18.761719 117.828125 L 14.257812 117.828125 L 14.257812 115.585938 C 14.257812 113.09375 12.066406 111.066406 9.378906 111.066406 L 7.128906 111.066406 L 7.128906 106.570312 L 9.378906 106.570312 C 14.554688 106.570312 18.761719 110.613281 18.761719 115.585938 L 18.761719 117.828125 " fill-opacity="1" fill-rule="nonzero"/><path fill="#d8d7d5" d="M 12.738281 96.527344 L 11.265625 94.832031 C 9.253906 92.523438 8.148438 89.601562 8.148438 86.59375 L 8.148438 84.34375 L 12.644531 84.34375 L 12.644531 86.59375 C 12.644531 88.542969 13.339844 90.375 14.65625 91.886719 L 16.128906 93.574219 L 12.738281 96.527344 " fill-opacity="1" fill-rule="nonzero"/><path fill="#d8d7d5" d="M 74.316406 54.152344 L 69.820312 54.152344 L 69.820312 51.902344 C 69.820312 48.738281 67.25 46.167969 64.085938 46.167969 L 61.84375 46.167969 L 61.84375 41.671875 L 64.085938 41.671875 C 69.726562 41.671875 74.316406 46.261719 74.316406 51.902344 L 74.316406 54.152344 " fill-opacity="1" fill-rule="nonzero"/><path fill="#d8d7d5" d="M 33.84375 49.621094 L 32.621094 45.289062 L 34.785156 44.679688 C 36.257812 44.269531 37.480469 43.300781 38.230469 41.96875 C 38.984375 40.636719 39.164062 39.085938 38.75 37.613281 L 38.144531 35.449219 L 42.476562 34.234375 L 43.082031 36.398438 C 43.824219 39.023438 43.496094 41.789062 42.15625 44.175781 C 40.816406 46.550781 38.636719 48.273438 36 49.011719 L 33.84375 49.621094 " fill-opacity="1" fill-rule="nonzero"/><path fill="#d8d7d5" d="M 17.878906 105.480469 L 16.664062 101.148438 L 18.832031 100.542969 C 20.304688 100.128906 21.527344 99.160156 22.273438 97.828125 C 23.023438 96.488281 23.207031 94.945312 22.789062 93.476562 L 22.179688 91.308594 L 26.511719 90.09375 L 27.121094 92.257812 C 27.859375 94.886719 27.53125 97.644531 26.199219 100.027344 C 24.859375 102.410156 22.671875 104.132812 20.046875 104.871094 L 17.878906 105.480469 " fill-opacity="1" fill-rule="nonzero"/><path fill="#d8d7d5" d="M 40.925781 93.117188 C 36.453125 93.117188 32.339844 90.164062 31.070312 85.660156 L 30.460938 83.496094 L 34.792969 82.277344 L 35.402344 84.445312 C 36.257812 87.484375 39.429688 89.261719 42.46875 88.402344 L 44.632812 87.796875 L 45.847656 92.125 L 43.683594 92.734375 C 42.765625 92.992188 41.835938 93.117188 40.925781 93.117188 " fill-opacity="1" fill-rule="nonzero"/><path fill="#d8d7d5" d="M 29.597656 116.339844 L 25.671875 114.136719 L 26.777344 112.171875 C 28.109375 109.796875 30.296875 108.074219 32.925781 107.335938 C 35.558594 106.601562 38.316406 106.921875 40.699219 108.261719 L 42.664062 109.359375 L 40.457031 113.277344 L 38.496094 112.179688 C 37.164062 111.433594 35.621094 111.246094 34.140625 111.667969 C 32.667969 112.078125 31.445312 113.039062 30.695312 114.378906 L 29.597656 116.339844 " fill-opacity="1" fill-rule="nonzero"/><path fill="#d8d7d5" d="M 52.191406 113.597656 L 47.90625 112.234375 L 48.582031 110.09375 C 49.542969 107.078125 47.867188 103.851562 44.851562 102.894531 L 42.710938 102.214844 L 44.074219 97.929688 L 46.214844 98.609375 C 51.589844 100.316406 54.574219 106.082031 52.867188 111.449219 L 52.191406 113.597656 " fill-opacity="1" fill-rule="nonzero"/><path fill="#d8d7d5" d="M 73.03125 112.9375 L 71.816406 108.613281 L 73.980469 108.003906 C 74.785156 107.777344 75.445312 107.25 75.851562 106.523438 C 76.265625 105.800781 76.367188 104.957031 76.140625 104.148438 L 75.523438 101.980469 L 79.855469 100.765625 L 80.464844 102.933594 C 81.015625 104.894531 80.777344 106.953125 79.777344 108.730469 C 78.78125 110.496094 77.152344 111.785156 75.199219 112.328125 L 73.03125 112.9375 " fill-opacity="1" fill-rule="nonzero"/><path fill="#d8d7d5" d="M 61.515625 113.769531 L 60.160156 111.96875 C 58.9375 110.351562 58.414062 108.347656 58.695312 106.328125 C 58.976562 104.3125 60.019531 102.527344 61.648438 101.304688 L 63.441406 99.949219 L 66.152344 103.53125 L 64.359375 104.886719 C 63.691406 105.394531 63.261719 106.128906 63.152344 106.953125 C 63.035156 107.777344 63.246094 108.597656 63.753906 109.257812 L 65.109375 111.058594 L 61.515625 113.769531 " fill-opacity="1" fill-rule="nonzero"/><path fill="#d8d7d5" d="M 61.515625 87.835938 L 60.160156 86.035156 C 58.9375 84.414062 58.414062 82.410156 58.695312 80.394531 C 58.976562 78.382812 60.019531 76.59375 61.648438 75.367188 L 63.441406 74.011719 L 66.152344 77.605469 L 64.359375 78.953125 C 63.691406 79.457031 63.261719 80.191406 63.152344 81.015625 C 63.035156 81.84375 63.246094 82.660156 63.753906 83.332031 L 65.109375 85.121094 L 61.515625 87.835938 " fill-opacity="1" fill-rule="nonzero"/><path fill="#d8d7d5" d="M 49.550781 61.898438 L 48.195312 60.105469 C 45.664062 56.75 46.324219 51.964844 49.683594 49.433594 L 51.472656 48.078125 L 54.183594 51.667969 L 52.394531 53.023438 C 51.015625 54.0625 50.742188 56.023438 51.785156 57.394531 L 53.140625 59.1875 L 49.550781 61.898438 " fill-opacity="1" fill-rule="nonzero"/><path fill="#d8d7d5" d="M 48.5 79.464844 L 44.246094 78.011719 L 44.96875 75.882812 C 45.632812 73.949219 47.003906 72.402344 48.832031 71.503906 C 50.65625 70.609375 52.730469 70.484375 54.652344 71.136719 L 56.78125 71.871094 L 55.316406 76.125 L 53.1875 75.398438 C 52.402344 75.128906 51.550781 75.183594 50.804688 75.546875 C 50.054688 75.914062 49.503906 76.546875 49.230469 77.339844 L 48.5 79.464844 " fill-opacity="1" fill-rule="nonzero"/><path fill="#d8d7d5" d="M 35.128906 130.894531 L 33.914062 126.5625 L 36.070312 125.953125 C 37.730469 125.488281 38.703125 123.765625 38.238281 122.105469 L 37.628906 119.941406 L 41.953125 118.726562 L 42.5625 120.890625 C 43.699219 124.933594 41.339844 129.148438 37.292969 130.285156 L 35.128906 130.894531 " fill-opacity="1" fill-rule="nonzero"/><path fill="#d8d7d5" d="M 73.917969 77.214844 L 70.46875 74.332031 L 71.910156 72.601562 C 73.941406 70.179688 73.617188 66.558594 71.191406 64.53125 C 70.015625 63.550781 68.542969 63.089844 67 63.222656 C 65.480469 63.355469 64.101562 64.078125 63.121094 65.257812 L 61.671875 66.976562 L 58.230469 64.09375 L 59.671875 62.367188 C 61.414062 60.269531 63.886719 58.984375 66.605469 58.742188 C 69.316406 58.492188 71.980469 59.328125 74.074219 61.082031 C 78.398438 64.695312 78.976562 71.160156 75.359375 75.484375 L 73.917969 77.214844 " fill-opacity="1" fill-rule="nonzero"/><path fill="#d8d7d5" d="M 22.882812 80.597656 L 22.476562 76.117188 L 24.71875 75.921875 C 26.238281 75.78125 27.625 75.058594 28.609375 73.886719 C 29.589844 72.710938 30.058594 71.222656 29.917969 69.695312 C 29.777344 68.179688 29.058594 66.796875 27.882812 65.816406 C 26.707031 64.835938 25.226562 64.375 23.699219 64.5 L 21.457031 64.703125 L 21.058594 60.222656 L 23.292969 60.019531 C 26.027344 59.769531 28.671875 60.613281 30.765625 62.367188 C 32.863281 64.117188 34.15625 66.582031 34.398438 69.300781 C 34.636719 72.019531 33.8125 74.675781 32.058594 76.769531 C 30.304688 78.867188 27.84375 80.152344 25.117188 80.402344 L 22.882812 80.597656 " fill-opacity="1" fill-rule="nonzero"/><path fill="#ffffff" d="M 97.511719 48.507812 C 104.078125 48.421875 107.800781 49.402344 110.195312 50.804688 L 97.511719 48.507812 " fill-opacity="1" fill-rule="nonzero"/><path fill="#d8d7d5" d="M 110.996094 53.882812 L 109.054688 52.742188 C 106.65625 51.332031 102.878906 50.671875 97.542969 50.757812 L 95.296875 50.789062 L 95.234375 46.285156 L 97.488281 46.261719 C 103.804688 46.175781 108.160156 47.003906 111.332031 48.863281 L 113.269531 50 L 110.996094 53.882812 " fill-opacity="1" fill-rule="nonzero"/><path fill="#d8d7d5" d="M 98.945312 51.722656 L 94.449219 51.722656 L 94.449219 49.472656 C 94.449219 45.714844 91.128906 41.121094 87.625 40.007812 L 84.859375 39.132812 L 86.394531 36.671875 C 87.1875 35.394531 87.601562 33.945312 87.601562 32.480469 C 87.601562 27.859375 83.589844 24.105469 78.648438 24.105469 C 77.753906 24.105469 76.855469 24.230469 75.992188 24.480469 L 73.8125 25.109375 L 73.203125 22.921875 C 72.765625 21.339844 71.230469 20.242188 69.480469 20.242188 C 67.351562 20.242188 65.613281 21.828125 65.613281 23.785156 C 65.613281 25.375 66.792969 26.777344 68.472656 27.191406 L 70.820312 27.773438 L 69.441406 32.230469 L 65.0625 31.203125 L 65.210938 30.6875 C 62.722656 29.269531 61.121094 26.667969 61.121094 23.785156 C 61.121094 19.351562 64.875 15.738281 69.480469 15.738281 C 72.492188 15.738281 75.222656 17.3125 76.683594 19.742188 C 77.332031 19.648438 77.988281 19.609375 78.648438 19.609375 C 86.066406 19.609375 92.105469 25.382812 92.105469 32.480469 C 92.105469 33.945312 91.839844 35.402344 91.324219 36.773438 C 95.640625 39.296875 98.945312 44.585938 98.945312 49.472656 Z M 88.832031 85.941406 C 87.414062 85.941406 86.019531 85.691406 84.6875 85.191406 L 82.582031 84.398438 L 84.171875 80.191406 L 86.277344 80.984375 C 87.09375 81.289062 87.949219 81.445312 88.832031 81.445312 C 92.648438 81.445312 95.75 78.554688 95.75 74.996094 C 95.75 71.699219 93.078125 68.964844 89.53125 68.628906 L 87.210938 68.402344 L 87.554688 65.816406 C 87.578125 65.652344 87.601562 65.496094 87.601562 65.335938 L 87.601562 63.089844 L 92.105469 63.089844 L 92.105469 64.546875 C 96.871094 65.894531 100.253906 70.078125 100.253906 74.996094 C 100.253906 81.03125 95.132812 85.941406 88.832031 85.941406 Z M 89.851562 114.929688 C 88.027344 114.929688 86.285156 114.355469 84.804688 113.269531 L 82.988281 111.9375 L 85.644531 108.316406 L 87.460938 109.640625 C 87.949219 110.007812 88.769531 110.433594 89.851562 110.433594 C 91.980469 110.433594 93.714844 108.839844 93.714844 106.882812 C 93.714844 104.492188 91.027344 102.628906 88.402344 103.609375 L 86.300781 104.398438 L 84.726562 100.183594 L 86.828125 99.394531 C 87.820312 99.03125 88.832031 98.84375 89.851562 98.84375 C 94.464844 98.84375 98.210938 102.449219 98.210938 106.882812 C 98.210938 111.324219 94.464844 114.929688 89.851562 114.929688 " fill-opacity="1" fill-rule="nonzero"/><path fill="#d8d7d5" d="M 108.300781 66.433594 L 106.335938 65.34375 C 105.074219 64.648438 103.71875 64.101562 102.300781 63.730469 L 100.128906 63.160156 L 101.273438 58.8125 L 103.445312 59.382812 C 105.222656 59.847656 106.921875 60.535156 108.511719 61.40625 L 110.480469 62.5 L 108.300781 66.433594 " fill-opacity="1" fill-rule="nonzero"/><path fill="#d8d7d5" d="M 102.261719 88.199219 L 101.046875 83.875 L 103.214844 83.269531 C 104.015625 83.042969 104.679688 82.511719 105.089844 81.789062 C 105.496094 81.0625 105.597656 80.222656 105.371094 79.414062 L 104.765625 77.246094 L 109.09375 76.03125 L 109.703125 78.195312 C 110.25 80.160156 110.007812 82.21875 109.007812 83.984375 C 108.011719 85.761719 106.390625 87.046875 104.429688 87.59375 L 102.261719 88.199219 " fill-opacity="1" fill-rule="nonzero"/><path fill="#d8d7d5" d="M 120.585938 128.652344 L 118.414062 128.082031 C 116.644531 127.621094 114.9375 126.9375 113.339844 126.054688 L 111.378906 124.964844 L 113.550781 121.03125 L 115.523438 122.121094 C 116.785156 122.824219 118.140625 123.367188 119.550781 123.734375 L 121.722656 124.304688 L 120.585938 128.652344 " fill-opacity="1" fill-rule="nonzero"/><path fill="#d8d7d5" d="M 112.765625 111.433594 L 112.15625 109.265625 C 111.605469 107.304688 111.851562 105.253906 112.84375 103.476562 C 113.839844 101.703125 115.46875 100.425781 117.429688 99.871094 L 119.597656 99.261719 L 120.8125 103.59375 L 118.648438 104.203125 C 117.84375 104.421875 117.175781 104.949219 116.769531 105.675781 C 116.363281 106.40625 116.253906 107.25 116.488281 108.050781 L 117.097656 110.21875 L 112.765625 111.433594 " fill-opacity="1" fill-rule="nonzero"/><path fill="#d8d7d5" d="M 130.535156 96.878906 L 126.039062 96.878906 L 126.039062 94.628906 C 126.039062 91.472656 123.46875 88.902344 120.304688 88.902344 L 118.0625 88.902344 L 118.0625 84.398438 L 120.304688 84.398438 C 125.945312 84.398438 130.535156 88.988281 130.535156 94.628906 L 130.535156 96.878906 " fill-opacity="1" fill-rule="nonzero"/><path fill="#d8d7d5" d="M 97.820312 123.867188 L 95.570312 123.867188 L 95.570312 119.363281 L 97.820312 119.363281 C 100.984375 119.363281 103.546875 116.792969 103.546875 113.636719 L 103.546875 111.386719 L 108.050781 111.386719 L 108.050781 113.636719 C 108.050781 119.269531 103.460938 123.867188 97.820312 123.867188 " fill-opacity="1" fill-rule="nonzero"/><path fill="#d8d7d5" d="M 51.792969 39.414062 L 50.4375 37.613281 C 47.914062 34.265625 48.574219 29.480469 51.925781 26.949219 L 53.71875 25.59375 L 56.429688 29.183594 L 54.636719 30.53125 C 53.265625 31.570312 52.992188 33.53125 54.03125 34.910156 L 55.386719 36.703125 L 51.792969 39.414062 " fill-opacity="1" fill-rule="nonzero"/></svg>