<svg xmlns="http://www.w3.org/2000/svg" xmlns:xlink="http://www.w3.org/1999/xlink" width="192" zoomAndPan="magnify" viewBox="0 0 144 143.999998" height="192" preserveAspectRatio="xMidYMid meet" version="1.0"><defs><clipPath id="284f9050fc"><path d="M 35 3.421875 L 100 3.421875 L 100 47 L 35 47 Z M 35 3.421875 " clip-rule="nonzero"/></clipPath></defs><path fill="#05ad50" d="M 67.367188 68.082031 C 66.621094 67.820312 65.949219 67.6875 65.34375 67.6875 C 64.5 67.6875 63.796875 67.910156 63.230469 68.355469 C 62.664062 68.800781 62.285156 69.371094 62.09375 70.070312 L 62.09375 81.75 L 57.398438 81.75 L 57.398438 63.671875 L 61.046875 63.671875 L 61.585938 66.058594 L 61.730469 66.058594 C 62.140625 65.167969 62.695312 64.480469 63.394531 63.996094 C 64.09375 63.515625 64.910156 63.273438 65.851562 63.273438 C 66.476562 63.273438 67.1875 63.40625 67.980469 63.671875 Z M 67.367188 68.082031 " fill-opacity="1" fill-rule="nonzero"/><path fill="#05ad50" d="M 84.527344 80.195312 C 83.804688 80.773438 82.824219 81.261719 81.585938 81.65625 C 80.34375 82.054688 79.027344 82.253906 77.628906 82.253906 C 74.714844 82.253906 72.582031 81.40625 71.234375 79.707031 C 69.886719 78.007812 69.210938 75.675781 69.210938 72.710938 C 69.210938 69.53125 69.96875 67.144531 71.488281 65.554688 C 73.003906 63.960938 75.136719 63.167969 77.882812 63.167969 C 78.796875 63.167969 79.6875 63.289062 80.554688 63.527344 C 81.421875 63.769531 82.191406 64.167969 82.867188 64.722656 C 83.542969 65.277344 84.082031 66.023438 84.492188 66.964844 C 84.902344 67.902344 85.109375 69.074219 85.109375 70.46875 C 85.109375 70.976562 85.078125 71.519531 85.015625 72.097656 C 84.957031 72.675781 84.867188 73.277344 84.746094 73.90625 L 73.910156 73.90625 C 73.980469 75.425781 74.371094 76.570312 75.082031 77.339844 C 75.792969 78.113281 76.941406 78.496094 78.53125 78.496094 C 79.519531 78.496094 80.40625 78.347656 81.1875 78.046875 C 81.96875 77.746094 82.566406 77.4375 82.976562 77.125 Z M 77.808594 66.925781 C 76.582031 66.925781 75.671875 67.292969 75.082031 68.027344 C 74.492188 68.765625 74.136719 69.746094 74.015625 70.976562 L 80.734375 70.976562 C 80.832031 69.671875 80.632812 68.675781 80.140625 67.972656 C 79.644531 67.277344 78.867188 66.925781 77.808594 66.925781 Z M 77.808594 66.925781 " fill-opacity="1" fill-rule="nonzero"/><path fill="#0f86a3" d="M 87.910156 70.996094 L 87.910156 72.945312 C 87.910156 73.222656 87.945312 73.425781 88.007812 73.546875 C 88.074219 73.671875 88.203125 73.734375 88.398438 73.734375 C 88.566406 73.734375 88.707031 73.683594 88.816406 73.582031 C 88.929688 73.480469 89.011719 73.359375 89.066406 73.210938 L 89.066406 70.996094 L 89.960938 70.996094 L 89.960938 73.382812 C 89.960938 73.570312 89.96875 73.753906 89.988281 73.933594 C 90.003906 74.117188 90.03125 74.277344 90.070312 74.425781 L 89.398438 74.425781 L 89.242188 73.917969 L 89.214844 73.917969 C 89.109375 74.089844 88.960938 74.234375 88.773438 74.351562 C 88.585938 74.464844 88.367188 74.519531 88.109375 74.519531 C 87.9375 74.519531 87.78125 74.5 87.644531 74.453125 C 87.507812 74.40625 87.394531 74.332031 87.300781 74.226562 C 87.210938 74.121094 87.140625 73.980469 87.089844 73.800781 C 87.042969 73.621094 87.019531 73.398438 87.019531 73.128906 L 87.019531 70.996094 Z M 87.910156 70.996094 " fill-opacity="1" fill-rule="nonzero"/><path fill="#0f86a3" d="M 92.160156 73.476562 C 92.160156 73.386719 92.121094 73.3125 92.042969 73.257812 C 91.964844 73.203125 91.871094 73.152344 91.753906 73.109375 C 91.640625 73.0625 91.515625 73.015625 91.378906 72.96875 C 91.242188 72.921875 91.113281 72.855469 91 72.769531 C 90.886719 72.683594 90.789062 72.578125 90.714844 72.445312 C 90.636719 72.316406 90.597656 72.148438 90.597656 71.941406 C 90.597656 71.605469 90.695312 71.347656 90.898438 71.167969 C 91.097656 70.988281 91.390625 70.898438 91.769531 70.898438 C 92.027344 70.898438 92.265625 70.929688 92.472656 70.984375 C 92.683594 71.039062 92.847656 71.097656 92.96875 71.167969 L 92.769531 71.8125 C 92.664062 71.769531 92.53125 71.726562 92.371094 71.683594 C 92.210938 71.636719 92.050781 71.613281 91.886719 71.613281 C 91.621094 71.613281 91.488281 71.714844 91.488281 71.921875 C 91.488281 72.003906 91.527344 72.070312 91.605469 72.121094 C 91.679688 72.171875 91.777344 72.21875 91.890625 72.261719 C 92.003906 72.304688 92.132812 72.351562 92.269531 72.402344 C 92.40625 72.453125 92.53125 72.519531 92.644531 72.597656 C 92.761719 72.679688 92.855469 72.78125 92.933594 72.910156 C 93.011719 73.039062 93.050781 73.203125 93.050781 73.40625 C 93.050781 73.75 92.9375 74.023438 92.71875 74.222656 C 92.496094 74.421875 92.164062 74.523438 91.71875 74.523438 C 91.476562 74.523438 91.25 74.492188 91.039062 74.429688 C 90.824219 74.367188 90.652344 74.296875 90.519531 74.214844 L 90.769531 73.546875 C 90.871094 73.605469 91.011719 73.664062 91.1875 73.722656 C 91.359375 73.78125 91.539062 73.808594 91.71875 73.808594 C 91.851562 73.808594 91.960938 73.78125 92.039062 73.730469 C 92.121094 73.683594 92.160156 73.597656 92.160156 73.476562 Z M 92.160156 73.476562 " fill-opacity="1" fill-rule="nonzero"/><path fill="#0f86a3" d="M 96.375 74.128906 C 96.238281 74.238281 96.050781 74.332031 95.816406 74.40625 C 95.582031 74.484375 95.332031 74.519531 95.066406 74.519531 C 94.511719 74.519531 94.109375 74.359375 93.851562 74.039062 C 93.597656 73.714844 93.46875 73.273438 93.46875 72.710938 C 93.46875 72.105469 93.613281 71.65625 93.902344 71.351562 C 94.1875 71.050781 94.59375 70.898438 95.113281 70.898438 C 95.289062 70.898438 95.457031 70.921875 95.621094 70.96875 C 95.785156 71.015625 95.929688 71.089844 96.058594 71.195312 C 96.1875 71.300781 96.289062 71.441406 96.367188 71.621094 C 96.445312 71.800781 96.484375 72.019531 96.484375 72.285156 C 96.484375 72.382812 96.476562 72.484375 96.46875 72.59375 C 96.457031 72.707031 96.4375 72.820312 96.414062 72.9375 L 94.359375 72.9375 C 94.375 73.226562 94.449219 73.445312 94.582031 73.589844 C 94.714844 73.738281 94.933594 73.808594 95.238281 73.808594 C 95.421875 73.808594 95.589844 73.78125 95.738281 73.722656 C 95.886719 73.667969 96 73.609375 96.078125 73.550781 Z M 95.101562 71.613281 C 94.867188 71.613281 94.695312 71.683594 94.582031 71.824219 C 94.472656 71.960938 94.402344 72.148438 94.378906 72.382812 L 95.65625 72.382812 C 95.675781 72.132812 95.636719 71.945312 95.542969 71.8125 C 95.449219 71.679688 95.300781 71.613281 95.101562 71.613281 Z M 95.101562 71.613281 " fill-opacity="1" fill-rule="nonzero"/><path fill="#0f86a3" d="M 90.097656 66.761719 C 90.097656 66.953125 90.097656 67.144531 90.105469 67.335938 C 90.109375 67.527344 90.128906 67.742188 90.164062 67.976562 L 89.527344 67.976562 L 89.40625 67.527344 L 89.378906 67.527344 C 89.285156 67.6875 89.15625 67.820312 88.984375 67.917969 C 88.8125 68.015625 88.609375 68.0625 88.375 68.0625 C 87.949219 68.0625 87.613281 67.921875 87.375 67.636719 C 87.136719 67.355469 87.019531 66.910156 87.019531 66.308594 C 87.019531 65.722656 87.152344 65.265625 87.417969 64.941406 C 87.683594 64.617188 88.070312 64.457031 88.582031 64.457031 C 88.722656 64.457031 88.839844 64.464844 88.933594 64.480469 C 89.023438 64.496094 89.113281 64.523438 89.207031 64.558594 L 89.207031 63.164062 L 90.097656 63.164062 Z M 88.582031 67.308594 C 88.753906 67.308594 88.890625 67.265625 88.992188 67.183594 C 89.09375 67.097656 89.164062 66.976562 89.207031 66.816406 L 89.207031 65.363281 C 89.140625 65.3125 89.070312 65.273438 88.992188 65.25 C 88.914062 65.222656 88.816406 65.210938 88.691406 65.210938 C 88.441406 65.210938 88.25 65.296875 88.125 65.464844 C 88 65.632812 87.9375 65.925781 87.9375 66.335938 C 87.9375 66.628906 87.988281 66.863281 88.089844 67.042969 C 88.195312 67.21875 88.359375 67.308594 88.582031 67.308594 Z M 88.582031 67.308594 " fill-opacity="1" fill-rule="nonzero"/><path fill="#0f86a3" d="M 91.734375 64.539062 L 91.734375 66.488281 C 91.734375 66.765625 91.765625 66.964844 91.832031 67.089844 C 91.898438 67.210938 92.027344 67.273438 92.21875 67.273438 C 92.390625 67.273438 92.53125 67.222656 92.640625 67.125 C 92.753906 67.023438 92.835938 66.898438 92.890625 66.753906 L 92.890625 64.539062 L 93.785156 64.539062 L 93.785156 66.925781 C 93.785156 67.113281 93.792969 67.296875 93.8125 67.476562 C 93.828125 67.65625 93.855469 67.820312 93.894531 67.96875 L 93.222656 67.96875 L 93.066406 67.460938 L 93.035156 67.460938 C 92.933594 67.632812 92.785156 67.777344 92.597656 67.890625 C 92.410156 68.007812 92.191406 68.0625 91.933594 68.0625 C 91.761719 68.0625 91.605469 68.039062 91.46875 67.996094 C 91.332031 67.949219 91.214844 67.875 91.125 67.769531 C 91.035156 67.664062 90.964844 67.519531 90.914062 67.34375 C 90.867188 67.164062 90.84375 66.941406 90.84375 66.671875 L 90.84375 64.539062 Z M 91.734375 64.539062 " fill-opacity="1" fill-rule="nonzero"/><path fill="#0f86a3" d="M 96.992188 67.753906 C 96.855469 67.855469 96.6875 67.933594 96.496094 67.984375 C 96.300781 68.039062 96.101562 68.0625 95.894531 68.0625 C 95.621094 68.0625 95.390625 68.019531 95.199219 67.933594 C 95.007812 67.847656 94.855469 67.726562 94.734375 67.566406 C 94.617188 67.410156 94.53125 67.21875 94.480469 66.996094 C 94.425781 66.769531 94.398438 66.523438 94.398438 66.253906 C 94.398438 65.671875 94.53125 65.226562 94.789062 64.914062 C 95.050781 64.601562 95.429688 64.445312 95.929688 64.445312 C 96.179688 64.445312 96.382812 64.464844 96.535156 64.503906 C 96.6875 64.546875 96.824219 64.597656 96.949219 64.664062 L 96.738281 65.390625 C 96.632812 65.339844 96.527344 65.300781 96.425781 65.273438 C 96.320312 65.246094 96.203125 65.230469 96.070312 65.234375 C 95.824219 65.234375 95.636719 65.316406 95.507812 65.476562 C 95.382812 65.640625 95.316406 65.898438 95.316406 66.253906 C 95.316406 66.402344 95.335938 66.535156 95.367188 66.660156 C 95.398438 66.78125 95.445312 66.890625 95.511719 66.980469 C 95.574219 67.074219 95.65625 67.144531 95.761719 67.199219 C 95.863281 67.25 95.984375 67.277344 96.121094 67.277344 C 96.269531 67.277344 96.398438 67.257812 96.503906 67.21875 C 96.609375 67.179688 96.703125 67.132812 96.785156 67.078125 Z M 96.992188 67.753906 " fill-opacity="1" fill-rule="nonzero"/><path fill="#0f86a3" d="M 100.15625 67.671875 C 100.019531 67.78125 99.835938 67.875 99.597656 67.949219 C 99.363281 68.027344 99.113281 68.0625 98.847656 68.0625 C 98.296875 68.0625 97.890625 67.902344 97.636719 67.582031 C 97.378906 67.257812 97.25 66.816406 97.25 66.253906 C 97.25 65.648438 97.394531 65.195312 97.683594 64.894531 C 97.972656 64.59375 98.375 64.441406 98.898438 64.441406 C 99.070312 64.441406 99.238281 64.464844 99.40625 64.511719 C 99.570312 64.558594 99.714844 64.632812 99.84375 64.738281 C 99.96875 64.84375 100.074219 64.984375 100.152344 65.164062 C 100.226562 65.339844 100.265625 65.5625 100.265625 65.828125 C 100.265625 65.925781 100.261719 66.027344 100.25 66.136719 C 100.238281 66.246094 100.222656 66.363281 100.199219 66.480469 L 98.140625 66.480469 C 98.15625 66.769531 98.230469 66.984375 98.363281 67.132812 C 98.5 67.277344 98.71875 67.351562 99.019531 67.351562 C 99.207031 67.351562 99.375 67.324219 99.523438 67.265625 C 99.671875 67.207031 99.785156 67.148438 99.863281 67.089844 Z M 98.882812 65.15625 C 98.652344 65.15625 98.476562 65.226562 98.367188 65.363281 C 98.253906 65.503906 98.1875 65.691406 98.164062 65.925781 L 99.4375 65.925781 C 99.457031 65.675781 99.417969 65.488281 99.324219 65.355469 C 99.230469 65.222656 99.085938 65.15625 98.882812 65.15625 Z M 98.882812 65.15625 " fill-opacity="1" fill-rule="nonzero"/><path fill="#0f86a3" d="M 89.609375 80.636719 C 89.472656 80.738281 89.308594 80.8125 89.113281 80.867188 C 88.917969 80.917969 88.71875 80.945312 88.511719 80.945312 C 88.238281 80.945312 88.007812 80.902344 87.816406 80.816406 C 87.628906 80.726562 87.472656 80.605469 87.355469 80.449219 C 87.234375 80.289062 87.148438 80.097656 87.097656 79.875 C 87.042969 79.652344 87.019531 79.402344 87.019531 79.136719 C 87.019531 78.554688 87.148438 78.109375 87.40625 77.792969 C 87.667969 77.480469 88.046875 77.324219 88.546875 77.324219 C 88.796875 77.324219 89 77.34375 89.152344 77.386719 C 89.304688 77.429688 89.445312 77.480469 89.566406 77.542969 L 89.355469 78.269531 C 89.25 78.222656 89.144531 78.183594 89.042969 78.15625 C 88.9375 78.128906 88.820312 78.113281 88.6875 78.113281 C 88.441406 78.113281 88.253906 78.195312 88.125 78.355469 C 88 78.519531 87.933594 78.777344 87.933594 79.136719 C 87.933594 79.28125 87.953125 79.417969 87.984375 79.539062 C 88.015625 79.664062 88.0625 79.769531 88.128906 79.863281 C 88.191406 79.953125 88.273438 80.027344 88.378906 80.078125 C 88.480469 80.132812 88.601562 80.15625 88.738281 80.15625 C 88.886719 80.15625 89.015625 80.136719 89.121094 80.101562 C 89.226562 80.058594 89.320312 80.015625 89.402344 79.960938 Z M 89.609375 80.636719 " fill-opacity="1" fill-rule="nonzero"/><path fill="#0f86a3" d="M 91.28125 79.347656 L 91.40625 79.882812 L 91.445312 79.882812 L 91.535156 79.339844 L 92.054688 77.417969 L 92.972656 77.417969 L 91.933594 80.511719 C 91.84375 80.769531 91.761719 81.003906 91.683594 81.214844 C 91.601562 81.429688 91.515625 81.613281 91.417969 81.769531 C 91.320312 81.921875 91.214844 82.042969 91.097656 82.128906 C 90.984375 82.214844 90.84375 82.253906 90.683594 82.253906 C 90.445312 82.253906 90.257812 82.214844 90.117188 82.140625 L 90.28125 81.425781 C 90.347656 81.453125 90.417969 81.46875 90.484375 81.464844 C 90.589844 81.464844 90.691406 81.421875 90.789062 81.332031 C 90.890625 81.242188 90.964844 81.082031 91.011719 80.847656 L 89.582031 77.417969 L 90.648438 77.417969 Z M 91.28125 79.347656 " fill-opacity="1" fill-rule="nonzero"/><path fill="#0f86a3" d="M 95.6875 80.636719 C 95.550781 80.738281 95.386719 80.8125 95.191406 80.867188 C 95 80.917969 94.796875 80.945312 94.59375 80.945312 C 94.320312 80.945312 94.085938 80.902344 93.898438 80.816406 C 93.707031 80.726562 93.554688 80.605469 93.433594 80.449219 C 93.316406 80.289062 93.230469 80.097656 93.175781 79.875 C 93.125 79.652344 93.097656 79.402344 93.097656 79.136719 C 93.097656 78.554688 93.230469 78.109375 93.488281 77.792969 C 93.75 77.480469 94.128906 77.324219 94.625 77.324219 C 94.878906 77.324219 95.078125 77.34375 95.234375 77.386719 C 95.386719 77.429688 95.523438 77.480469 95.648438 77.542969 L 95.433594 78.269531 C 95.328125 78.222656 95.226562 78.183594 95.125 78.15625 C 95.019531 78.128906 94.902344 78.113281 94.769531 78.113281 C 94.523438 78.113281 94.335938 78.195312 94.207031 78.355469 C 94.082031 78.519531 94.015625 78.777344 94.015625 79.136719 C 94.015625 79.28125 94.03125 79.417969 94.066406 79.539062 C 94.097656 79.664062 94.144531 79.769531 94.207031 79.863281 C 94.273438 79.953125 94.355469 80.027344 94.460938 80.078125 C 94.5625 80.132812 94.679688 80.15625 94.820312 80.15625 C 94.96875 80.15625 95.097656 80.136719 95.203125 80.101562 C 95.308594 80.058594 95.402344 80.015625 95.484375 79.960938 Z M 95.6875 80.636719 " fill-opacity="1" fill-rule="nonzero"/><path fill="#0f86a3" d="M 97.148438 79.695312 C 97.148438 79.855469 97.171875 79.972656 97.210938 80.046875 C 97.253906 80.121094 97.320312 80.15625 97.410156 80.15625 C 97.464844 80.15625 97.519531 80.152344 97.570312 80.140625 C 97.625 80.132812 97.6875 80.113281 97.765625 80.078125 L 97.863281 80.78125 C 97.789062 80.816406 97.679688 80.851562 97.527344 80.890625 C 97.378906 80.925781 97.222656 80.945312 97.0625 80.945312 C 96.800781 80.945312 96.601562 80.882812 96.464844 80.761719 C 96.328125 80.640625 96.261719 80.441406 96.261719 80.164062 L 96.261719 76.046875 L 97.152344 76.046875 Z M 97.148438 79.695312 " fill-opacity="1" fill-rule="nonzero"/><path fill="#0f86a3" d="M 100.988281 80.554688 C 100.851562 80.664062 100.664062 80.753906 100.429688 80.832031 C 100.191406 80.90625 99.941406 80.945312 99.679688 80.945312 C 99.125 80.945312 98.71875 80.78125 98.464844 80.460938 C 98.207031 80.140625 98.082031 79.695312 98.082031 79.132812 C 98.082031 78.53125 98.226562 78.078125 98.511719 77.773438 C 98.800781 77.472656 99.203125 77.324219 99.726562 77.324219 C 99.898438 77.324219 100.070312 77.34375 100.234375 77.390625 C 100.398438 77.4375 100.542969 77.511719 100.671875 77.617188 C 100.800781 77.722656 100.902344 77.863281 100.980469 78.042969 C 101.058594 78.222656 101.097656 78.441406 101.097656 78.707031 C 101.097656 78.804688 101.089844 78.90625 101.078125 79.015625 C 101.066406 79.125 101.050781 79.242188 101.027344 79.359375 L 98.972656 79.359375 C 98.984375 79.648438 99.058594 79.867188 99.195312 80.011719 C 99.328125 80.160156 99.546875 80.230469 99.847656 80.230469 C 100.035156 80.230469 100.203125 80.203125 100.351562 80.144531 C 100.5 80.089844 100.613281 80.03125 100.691406 79.972656 Z M 99.714844 78.035156 C 99.480469 78.035156 99.308594 78.105469 99.195312 78.246094 C 99.085938 78.386719 99.015625 78.570312 98.992188 78.804688 L 100.269531 78.804688 C 100.285156 78.558594 100.25 78.367188 100.15625 78.234375 C 100.0625 78.101562 99.914062 78.035156 99.714844 78.035156 Z M 99.714844 78.035156 " fill-opacity="1" fill-rule="nonzero"/><path fill="#0f86a3" d="M 0.03125 49.324219 C 3.984375 53.277344 14.226562 59.875 26.390625 48.804688 C 26.390625 48.804688 20.964844 42.75 14.054688 42.917969 C 5.324219 43.128906 0.03125 49.324219 0.03125 49.324219 Z M 0.03125 49.324219 " fill-opacity="1" fill-rule="evenodd"/><path fill="#05ad50" d="M 28.003906 44.136719 C 29.609375 39.863281 30.671875 35.515625 26.449219 28.675781 C 23.695312 24.214844 17.609375 22.65625 16.609375 17.535156 C 16.609375 17.535156 12.269531 27.558594 14.742188 33.964844 C 17.960938 42.3125 25.433594 43.640625 28.003906 44.136719 Z M 28.003906 44.136719 " fill-opacity="1" fill-rule="evenodd"/><path fill="#0f86a3" d="M 70.875 19.917969 C 76.113281 19.898438 82.703125 22.164062 84.066406 29.148438 C 84.066406 29.148438 75.089844 35.359375 76.308594 38.714844 C 77.527344 42.070312 102.277344 52.878906 110.183594 47.480469 C 119.847656 40.878906 117.996094 12.507812 114.230469 10.90625 C 110.464844 9.308594 102.832031 16.589844 102.832031 16.589844 C 102.832031 16.589844 100.382812 6.785156 87.496094 8.574219 C 74.605469 10.363281 65.636719 19.933594 70.875 19.917969 Z M 70.875 19.917969 " fill-opacity="1" fill-rule="evenodd"/><path fill="#0f86a3" d="M 125.082031 97.933594 C 122.0625 102.21875 116.402344 106.28125 109.921875 103.351562 C 109.921875 103.351562 110.058594 92.429688 106.621094 91.480469 C 103.179688 90.53125 80.042969 104.460938 79.863281 114.039062 C 79.644531 125.746094 103.828125 140.664062 107.3125 138.519531 C 110.800781 136.375 109.285156 125.933594 109.285156 125.933594 C 109.285156 125.933594 118.691406 129.613281 124.699219 118.0625 C 130.707031 106.511719 128.101562 93.652344 125.082031 97.933594 Z M 125.082031 97.933594 " fill-opacity="1" fill-rule="evenodd"/><path fill="#0f86a3" d="M 30.050781 109.503906 C 27.84375 104.75 27.140625 97.8125 32.90625 93.648438 C 32.90625 93.648438 42.300781 99.210938 44.835938 96.695312 C 47.375 94.183594 46.820312 67.167969 38.609375 62.242188 C 28.574219 56.222656 3.601562 69.78125 3.722656 73.875 C 3.847656 77.964844 13.652344 81.855469 13.652344 81.855469 C 13.652344 81.855469 5.78125 88.183594 12.796875 99.148438 C 19.816406 110.113281 32.257812 114.257812 30.050781 109.503906 Z M 30.050781 109.503906 " fill-opacity="1" fill-rule="evenodd"/><g clip-path="url(#284f9050fc)"><path fill="#05ad50" d="M 35.832031 37.226562 C 34.605469 29.722656 39.875 20.046875 48.773438 13.015625 C 55.964844 7.332031 64.675781 4.515625 73.792969 3.96875 C 82.910156 3.417969 95.773438 6.949219 98.511719 10.015625 C 101.253906 13.082031 96.929688 11.265625 93.324219 11.003906 C 84.269531 10.335938 77.972656 13.007812 73.703125 18.109375 C 69.472656 23.171875 65.878906 28.953125 65.144531 39.09375 C 64.699219 45.273438 60.671875 47.441406 53.457031 46.128906 C 46.246094 44.8125 36.683594 42.425781 35.832031 37.226562 Z M 35.832031 37.226562 " fill-opacity="1" fill-rule="evenodd"/></g><path fill="#05ad50" d="M 131.273438 59.324219 C 138.097656 62.664062 142.925781 72.570312 143.503906 83.898438 C 143.96875 93.058594 141.21875 101.796875 136.386719 109.550781 C 131.554688 117.308594 121.230469 125.753906 117.144531 126.214844 C 113.058594 126.675781 117.039062 124.199219 119.34375 121.410156 C 125.132812 114.410156 126.601562 107.726562 124.914062 101.289062 C 123.242188 94.90625 120.613281 88.628906 112.777344 82.15625 C 108 78.210938 108.566406 73.667969 113.8125 68.546875 C 119.0625 63.425781 126.542969 57.007812 131.273438 59.324219 Z M 131.273438 59.324219 " fill-opacity="1" fill-rule="evenodd"/><path fill="#05ad50" d="M 60.429688 134.101562 C 54.136719 138.359375 43.148438 137.617188 33.042969 132.476562 C 24.871094 128.320312 18.671875 121.582031 14.355469 113.527344 C 10.039062 105.472656 7.859375 92.304688 9.496094 88.53125 C 11.128906 84.757812 11.292969 89.445312 12.5625 92.832031 C 15.75 101.34375 20.808594 105.949219 27.226562 107.6875 C 33.589844 109.414062 40.339844 110.261719 49.851562 106.683594 C 55.648438 104.503906 59.304688 107.253906 61.128906 114.359375 C 62.953125 121.460938 64.792969 131.148438 60.429688 134.101562 Z M 60.429688 134.101562 " fill-opacity="1" fill-rule="evenodd"/></svg>