<svg id="Layer_1" data-name="Layer 1" xmlns="http://www.w3.org/2000/svg" viewBox="0 0 350.49 39.84"><defs><style>.cls-1{fill:#fff;}</style></defs><path class="cls-1" d="M226.9,1.48c-14.35,0-23.44,6.7-23.41,18.91s9.14,18.83,23.5,18.8,23.49-6.7,23.47-18.91S241.25,1.45,226.9,1.48ZM227,32.12c-9.21,0-15-3.61-15-11.75s5.75-11.79,15-11.82,15,3.61,15,11.75S236.18,32.1,227,32.12Z"/><polygon class="cls-1" points="88.66 38.55 97.05 38.53 97.05 2.11 88.66 2.13 88.66 38.55"/><path class="cls-1" d="M139.44,2.12V31s-2.53.46-2.89-2-1.44-4.29-4-7L112.28,2.1l-8.89,0V38.55l8.28,0V9.71s2.54-.47,2.9,2,1.43,4.29,4,7l20.2,19.88h8.86V2.12Z"/><path class="cls-1" d="M304.77,2.12,285.32,38.54h8.77L298.71,30,319.34,30,324,38.54h9L313.38,2.12Zm-2.43,21.25,2.57-4.47c2.33-4.14,1.81-5.52,1.07-7.6-.5-1.39.64-2.83,1.11-3.28a1,1,0,0,1,.46-.27l8.18,15.59Z"/><path class="cls-1" d="M69.78,2.12H46.35V38.55l8.26,0V24.39l15.21,0c9.44,0,14.06-4,14.06-11.22C83.88,6.34,78.92,2.12,69.78,2.12ZM70,17.55l-15.37,0V5.31l.38,0c1,0,2.16-.22,2.65,1.52.55,1.92,3.9,2.09,5.55,2.09H70c4.39,0,6.21,1.37,6.22,4.27C76.18,16.25,74.36,17.54,70,17.55Z"/><path class="cls-1" d="M287.35,2.12l-9.47,17.54c-2.16,3.82-3.21,6.32-2.18,8.27,1.17,2.22-1.34,4-1.34,4L258.05,2.12h-9.44L268.7,38.54h8.08L296.55,2.12Z"/><path class="cls-1" d="M34.28,22.11c-1.61-1.47.31-4.19-7.36-5-7.85-.81-10.38-1-11.54-1.16l-.66-.11c-1-.35-3.69-.15-3.75-2.92-.06-3.07,4.51-3.9,7-4.22C20,8.47,31.79,7.5,34.31,14.14l7-2.34S39.66,3.68,26.61,2.09C14.08.57,8.08,4.36,6.09,6S1.17,12.08,4.4,16.09c1.59,1.84,5,1.74,6.79,2.41h0l.33.12.18.09h0a1.69,1.69,0,0,1,.58.55c.56.82.61,3.76,4.49,4.24,4.1.5,12.35,1.22,13,1.3s3.67,0,3.67,3.08-4.95,3.71-7.62,4c-2.21.22-14.74.64-17.47-5.67L.71,28.39s1.6,8.3,15.64,10c13.63,2,20-1.88,22.17-3.5s5.42-6.38,2-10.46C38.9,22.76,35.88,23.58,34.28,22.11Z"/><path class="cls-1" d="M189.92,2.12V31A2.38,2.38,0,0,1,187,29c-.37-2.43-1.44-4.29-4-7-.12-.13-20.24-19.93-20.24-19.93l-8.89,0V38.55l8.28,0V9.71s2.54-.47,2.9,2,1.44,4.29,4,7l20.2,19.88h8.85V2.12Z"/><path class="cls-1" d="M339.33,1.5a9.55,9.55,0,0,0-9.77,9.86,9.77,9.77,0,1,0,19.54,0A9.51,9.51,0,0,0,339.33,1.5Zm0,18.35a8.19,8.19,0,0,1-8.36-8.5,8.32,8.32,0,1,1,16.64,0A8.16,8.16,0,0,1,339.37,19.85Z"/><path class="cls-1" d="M343.64,9.36A3.44,3.44,0,0,0,339.89,6h-4l0,10.3h1.87v-3.4h1.87l2.22,3.4H344l-2.39-3.74A3.35,3.35,0,0,0,343.64,9.36Zm-3.74,1.76h-2.17V7.76H340a1.65,1.65,0,0,1,1.83,1.65A1.72,1.72,0,0,1,339.9,11.12Z"/></svg>