<svg xmlns="http://www.w3.org/2000/svg" xmlns:xlink="http://www.w3.org/1999/xlink" width="192" zoomAndPan="magnify" viewBox="0 0 144 143.999998" height="192" preserveAspectRatio="xMidYMid meet" version="1.0"><defs><clipPath id="7b273d4be1"><path d="M 5.398438 39 L 60 39 L 60 142 L 5.398438 142 Z M 5.398438 39 " clip-rule="nonzero"/></clipPath><clipPath id="a5e3959d34"><path d="M 95.0625 21 L 138.757812 21 L 138.757812 129.375 L 95.0625 129.375 Z M 95.0625 21 " clip-rule="nonzero"/></clipPath><clipPath id="f9a47f34d6"><path d="M 49 138 L 61.890625 138 L 61.890625 143.992188 L 49 143.992188 Z M 49 138 " clip-rule="nonzero"/></clipPath><clipPath id="d8c87aa604"><path d="M 85.03125 137.074219 L 100.460938 137.074219 L 100.460938 143.992188 L 85.03125 143.992188 Z M 85.03125 137.074219 " clip-rule="nonzero"/></clipPath><clipPath id="78ba5adab2"><path d="M 118.203125 54.722656 L 138.757812 54.722656 L 138.757812 70.882812 L 118.203125 70.882812 Z M 118.203125 54.722656 " clip-rule="nonzero"/></clipPath></defs><path fill="#60c0c4" d="M 113.265625 52.289062 C 113.265625 76.960938 93.21875 96.957031 68.492188 96.957031 C 43.765625 96.957031 23.722656 76.960938 23.722656 52.289062 C 23.722656 27.617188 43.765625 7.617188 68.492188 7.617188 C 93.21875 7.617188 113.265625 27.617188 113.265625 52.289062 " fill-opacity="1" fill-rule="nonzero"/><path fill="#6cd8d8" d="M 110.972656 51.945312 C 110.972656 74.746094 91.898438 93.226562 68.367188 93.226562 C 44.839844 93.226562 25.765625 74.746094 25.765625 51.945312 C 25.765625 29.144531 44.839844 10.660156 68.367188 10.660156 C 91.898438 10.660156 110.972656 29.144531 110.972656 51.945312 " fill-opacity="1" fill-rule="nonzero"/><path fill="#7bc13e" d="M 91.414062 14.082031 C 88.011719 15.273438 85.054688 22.359375 80.464844 22.160156 C 75.058594 21.925781 71.5 29.066406 68.914062 26.253906 C 66.328125 23.4375 63.121094 22.488281 62.476562 24.890625 C 61.828125 27.292969 61.980469 36.21875 58.054688 39.285156 C 54.132812 42.359375 64.316406 50.90625 68.570312 52.714844 C 72.824219 54.515625 77.066406 56.59375 80.144531 60.507812 C 83.222656 64.425781 94.09375 57.335938 98.875 59.433594 C 102.890625 61.195312 109.519531 60.023438 112.75 57.570312 C 112.777344 57.179688 112.761719 56.785156 112.816406 56.390625 C 114.933594 41.765625 106.613281 23.375 91.414062 14.082031 " fill-opacity="1" fill-rule="nonzero"/><path fill="#7bc13e" d="M 90.171875 62.152344 C 86.570312 63.691406 81.019531 63.496094 82.097656 66.71875 C 83.171875 69.941406 88.558594 72.09375 87.75 77.734375 C 86.941406 83.375 88.558594 88.210938 93.40625 83.375 C 98.25 78.539062 102.289062 74.242188 102.289062 66.988281 C 102.289062 59.734375 92.058594 61.347656 90.171875 62.152344 " fill-opacity="1" fill-rule="nonzero"/><path fill="#7bc13e" d="M 23.878906 48.484375 C 26.507812 50.214844 30.644531 50.453125 31.453125 51.417969 C 32.699219 52.910156 34.195312 52.164062 35.941406 54.902344 C 37.6875 57.636719 31.703125 61.371094 30.707031 66.101562 C 29.707031 70.828125 36.691406 78.292969 40.183594 82.027344 C 43.675781 85.757812 55.148438 89.246094 56.644531 89.246094 C 58.140625 89.246094 58.140625 87.253906 55.648438 82.027344 C 53.152344 76.800781 55.898438 69.085938 55.898438 64.109375 C 55.898438 59.132812 45.417969 57.390625 43.425781 56.644531 C 41.429688 55.898438 42.425781 53.65625 44.921875 49.921875 C 47.417969 46.191406 53.902344 44.949219 54.648438 40.71875 C 55.398438 36.484375 47.167969 23.296875 53.402344 19.066406 C 58.945312 15.304688 54.433594 12.726562 51.441406 10.972656 C 36.289062 17.207031 25.316406 31.492188 23.878906 48.484375 " fill-opacity="1" fill-rule="nonzero"/><path fill="#1c8d40" d="M 91.421875 14.035156 C 88.65625 14.761719 87.1875 17.550781 85.289062 19.445312 C 84.167969 20.5625 82.96875 21.363281 81.429688 21.773438 C 79.703125 22.238281 77.820312 22.242188 76.25 23.191406 C 74.691406 24.132812 73.601562 25.65625 71.792969 26.175781 C 71.492188 26.261719 71.496094 26.78125 71.84375 26.753906 C 73.402344 26.625 74.511719 25.347656 75.609375 24.367188 C 76.304688 23.742188 77.039062 23.257812 77.945312 23.011719 C 78.886719 22.75 79.859375 22.765625 80.820312 22.640625 C 82.414062 22.429688 83.789062 21.886719 84.9375 20.738281 C 85.941406 19.730469 86.722656 18.519531 87.613281 17.414062 C 88.65625 16.113281 89.867188 14.890625 91.5 14.378906 C 91.710938 14.308594 91.644531 13.980469 91.421875 14.035156 " fill-opacity="1" fill-rule="nonzero"/><path fill="#1c8d40" d="M 81.285156 60.65625 C 79.679688 59.128906 77.984375 57.703125 76.277344 56.285156 C 75.5 55.636719 74.753906 54.960938 73.863281 54.464844 C 73.011719 53.992188 72.078125 53.65625 71.164062 53.339844 C 67.75 52.148438 64.519531 50.339844 61.988281 47.734375 C 60.742188 46.449219 59.628906 45.015625 58.71875 43.46875 C 58.1875 42.5625 57.691406 41.535156 57.96875 40.464844 C 58.207031 39.546875 58.84375 38.839844 59.449219 38.144531 C 61.894531 35.332031 62.753906 31.324219 62.738281 27.671875 C 62.738281 26.59375 62.765625 25.402344 63.449219 24.507812 C 64.167969 23.558594 65.21875 23.28125 66.210938 24.03125 C 67.605469 25.085938 68.449219 27.554688 70.582031 27.109375 C 70.753906 27.070312 70.691406 26.816406 70.523438 26.84375 C 68.429688 27.199219 67.574219 24.21875 65.984375 23.402344 C 64.519531 22.652344 62.960938 23.617188 62.363281 25.007812 C 61.554688 26.886719 62.144531 29.078125 61.863281 31.050781 C 61.566406 33.144531 60.816406 35.066406 59.578125 36.785156 C 58.558594 38.199219 57.085938 39.660156 57.320312 41.554688 C 57.441406 42.515625 57.933594 43.382812 58.429688 44.195312 C 58.898438 44.960938 59.410156 45.699219 59.964844 46.398438 C 62.25 49.277344 65.242188 51.75 68.585938 53.292969 C 69.566406 53.746094 70.570312 54.109375 71.609375 54.410156 C 72.804688 54.761719 73.84375 55.234375 74.828125 56.015625 C 75.875 56.847656 76.835938 57.796875 77.84375 58.679688 C 78.824219 59.539062 79.816406 60.378906 80.835938 61.1875 C 81.148438 61.4375 81.574219 60.929688 81.285156 60.65625 " fill-opacity="1" fill-rule="nonzero"/><path fill="#1c8d40" d="M 111.535156 57.757812 C 109.8125 58.578125 108.136719 59.265625 106.234375 59.546875 C 104.308594 59.828125 102.359375 59.703125 100.5 59.128906 C 99.539062 58.835938 98.589844 58.476562 97.585938 58.351562 C 96.566406 58.222656 95.539062 58.296875 94.535156 58.46875 C 92.542969 58.808594 90.648438 59.484375 88.816406 60.308594 C 87.035156 61.121094 84.304688 62.851562 82.535156 61.105469 C 82.324219 60.898438 81.984375 61.207031 82.195312 61.410156 C 83.515625 62.707031 85.363281 62.269531 86.875 61.589844 C 87.898438 61.132812 88.886719 60.636719 89.960938 60.285156 C 90.988281 59.941406 92.03125 59.667969 93.097656 59.4375 C 94.226562 59.195312 95.378906 59.015625 96.535156 59.03125 C 97.691406 59.046875 98.800781 59.34375 99.910156 59.644531 C 101.824219 60.15625 103.773438 60.464844 105.765625 60.320312 C 107.855469 60.167969 110.128906 59.605469 111.878906 58.40625 C 112.261719 58.144531 111.972656 57.546875 111.535156 57.757812 " fill-opacity="1" fill-rule="nonzero"/><path fill="#1c8d40" d="M 102.945312 66.105469 C 102.824219 65.101562 102.253906 64.1875 101.582031 63.453125 C 99.972656 61.6875 97.632812 60.84375 95.265625 60.902344 C 92.613281 60.972656 90.097656 61.964844 87.675781 62.949219 C 87.355469 63.078125 87.496094 63.605469 87.820312 63.472656 C 91.4375 62.027344 96.050781 60.347656 99.640625 62.75 C 100.4375 63.285156 101.121094 64.015625 101.613281 64.839844 C 102.21875 65.84375 102.253906 66.855469 101.992188 67.984375 C 101.511719 70.027344 100.980469 72.082031 100.085938 73.992188 C 99.183594 75.929688 97.84375 77.476562 96.414062 79.039062 C 95.652344 79.871094 94.902344 80.710938 94.152344 81.554688 C 93.503906 82.285156 92.859375 83.082031 92.039062 83.632812 C 91.316406 84.121094 90.378906 84.421875 89.511719 84.152344 C 88.535156 83.84375 88.160156 82.851562 87.945312 81.941406 C 87.6875 80.828125 87.648438 79.621094 87.675781 78.476562 C 87.6875 77.925781 87.726562 77.382812 87.824219 76.835938 C 87.917969 76.3125 88.082031 75.789062 88.128906 75.257812 C 88.214844 74.203125 87.601562 73.464844 86.882812 72.777344 C 85.953125 71.890625 85.136719 70.894531 84.304688 69.917969 C 83.574219 69.058594 82.617188 68.171875 82.234375 67.082031 C 81.917969 66.191406 82.171875 64.9375 83.238281 64.714844 C 83.515625 64.65625 83.394531 64.238281 83.117188 64.285156 C 82.363281 64.417969 81.84375 65.03125 81.648438 65.746094 C 81.417969 66.582031 81.699219 67.417969 82.15625 68.125 C 82.777344 69.082031 83.648438 69.875 84.421875 70.707031 C 85.304688 71.660156 86.230469 72.609375 86.953125 73.695312 C 87.652344 74.753906 87.253906 75.972656 87.179688 77.160156 C 87.101562 78.453125 87.0625 79.722656 87.230469 81.015625 C 87.355469 81.988281 87.367188 83.136719 87.929688 83.984375 C 88.425781 84.746094 89.335938 85.113281 90.222656 85.121094 C 92.460938 85.144531 93.921875 83.105469 95.230469 81.582031 C 96.777344 79.78125 98.453125 77.980469 99.726562 75.96875 C 100.960938 74.011719 101.628906 71.78125 102.300781 69.589844 C 102.640625 68.476562 103.089844 67.285156 102.945312 66.105469 " fill-opacity="1" fill-rule="nonzero"/><path fill="#1c8d40" d="M 57.433594 85.332031 C 57.039062 84.628906 56.453125 83.953125 56.347656 83.125 C 56.238281 82.261719 56.601562 81.441406 56.410156 80.566406 C 56.234375 79.773438 55.800781 79.066406 55.464844 78.335938 C 55.066406 77.484375 54.871094 76.566406 54.84375 75.628906 C 54.796875 73.730469 55.332031 71.894531 55.796875 70.074219 C 56.597656 66.945312 57.160156 63.167969 54.585938 60.664062 C 54.09375 60.183594 53.507812 59.808594 52.855469 59.574219 C 52.0625 59.289062 51.203125 59.398438 50.402344 59.148438 C 49.582031 58.894531 49.113281 58.132812 48.449219 57.644531 C 47.945312 57.269531 47.34375 57.058594 46.734375 56.917969 C 45.5625 56.648438 43.976562 56.652344 43.039062 55.808594 C 41.609375 54.53125 42.847656 52.527344 43.84375 51.445312 C 45.128906 50.050781 46.488281 48.6875 47.863281 47.382812 C 49.140625 46.167969 50.515625 45.242188 52.035156 44.367188 C 53.207031 43.695312 54.398438 42.875 54.855469 41.535156 C 55.40625 39.929688 54.730469 37.992188 54.292969 36.425781 C 54.070312 35.628906 53.792969 34.839844 53.394531 34.117188 C 52.972656 33.359375 52.324219 32.730469 51.953125 31.953125 C 51.539062 31.097656 51.910156 30.203125 52.03125 29.320312 C 52.140625 28.527344 52.050781 27.730469 51.90625 26.945312 C 51.613281 25.332031 50.957031 23.480469 51.839844 21.933594 C 52.589844 20.625 54.003906 19.894531 54.878906 18.683594 C 56.347656 16.644531 55.683594 13.65625 53.816406 12.09375 C 53.371094 11.71875 52.867188 11.441406 52.308594 11.261719 C 52.019531 11.167969 51.902344 11.617188 52.183594 11.714844 C 54.617188 12.558594 55.757812 15.804688 54.410156 17.996094 C 53.652344 19.226562 52.355469 20.039062 51.550781 21.242188 C 50.699219 22.515625 50.765625 23.957031 51.003906 25.398438 C 51.140625 26.226562 51.335938 27.046875 51.398438 27.882812 C 51.46875 28.785156 51.257812 29.554688 51.054688 30.421875 C 50.875 31.203125 50.929688 31.902344 51.34375 32.601562 C 51.757812 33.308594 52.382812 33.859375 52.78125 34.578125 C 53.210938 35.359375 53.484375 36.210938 53.710938 37.066406 C 53.949219 37.953125 54.191406 38.878906 54.257812 39.796875 C 54.386719 41.53125 53.402344 42.582031 52 43.410156 C 50.640625 44.21875 49.273438 44.921875 48.066406 45.964844 C 46.667969 47.171875 45.40625 48.539062 44.109375 49.855469 C 43 50.980469 41.769531 52.167969 41.546875 53.8125 C 41.371094 55.152344 41.984375 56.40625 43.238281 56.96875 C 44.429688 57.503906 45.773438 57.363281 47.011719 57.710938 C 47.753906 57.914062 48.265625 58.308594 48.804688 58.84375 C 49.347656 59.382812 49.859375 59.8125 50.625 60.003906 C 51.390625 60.191406 52.195312 60.207031 52.90625 60.585938 C 53.527344 60.914062 54.042969 61.414062 54.433594 61.992188 C 55.328125 63.308594 55.582031 64.878906 55.484375 66.445312 C 55.253906 70.058594 53.378906 73.527344 54.199219 77.203125 C 54.574219 78.863281 55.882812 80.210938 55.621094 81.980469 C 55.503906 82.757812 55.496094 83.425781 55.828125 84.15625 C 56.144531 84.855469 56.675781 85.445312 56.953125 86.164062 C 57.171875 86.738281 57.28125 87.605469 56.703125 88.011719 C 56.289062 88.300781 56.675781 88.980469 57.101562 88.695312 C 58.25 87.921875 58.03125 86.394531 57.433594 85.332031 " fill-opacity="1" fill-rule="nonzero"/><path fill="#1c8d40" d="M 56.414062 89.257812 C 54.355469 88.515625 52.234375 87.972656 50.175781 87.222656 C 48.136719 86.476562 46.1875 85.539062 44.339844 84.402344 C 42.492188 83.265625 40.765625 81.976562 39.230469 80.441406 C 38.460938 79.671875 37.753906 78.851562 37.078125 78 C 36.378906 77.121094 35.640625 76.222656 35.132812 75.21875 C 34.144531 73.269531 32.949219 71.433594 31.933594 69.5 C 31.390625 68.46875 30.925781 67.320312 30.957031 66.132812 C 30.984375 65.074219 31.449219 64.035156 32.066406 63.183594 C 33.300781 61.476562 35.199219 60.375 36.253906 58.515625 C 37.058594 57.09375 37.191406 55.15625 36.125 53.824219 C 35.480469 53.019531 34.535156 52.785156 33.621094 52.40625 C 33.09375 52.179688 32.714844 51.886719 32.414062 51.390625 C 32.15625 50.964844 31.90625 50.53125 31.457031 50.273438 C 30.535156 49.75 29.277344 50.136719 28.273438 50 C 27.003906 49.824219 25.773438 49.214844 24.804688 48.382812 C 24.65625 48.257812 24.445312 48.460938 24.59375 48.601562 C 25.296875 49.277344 26.089844 49.796875 27.003906 50.144531 C 27.964844 50.507812 28.929688 50.597656 29.941406 50.679688 C 30.507812 50.722656 31.039062 50.847656 31.378906 51.34375 C 31.644531 51.722656 31.800781 52.167969 32.132812 52.507812 C 32.773438 53.171875 33.703125 53.339844 34.511719 53.707031 C 36.40625 54.574219 36.296875 56.945312 35.421875 58.527344 C 34.398438 60.375 32.632812 61.679688 31.367188 63.339844 C 30.765625 64.125 30.324219 65.003906 30.203125 65.992188 C 30.074219 67.0625 30.339844 68.101562 30.761719 69.078125 C 31.636719 71.121094 32.960938 72.972656 34.207031 74.808594 C 34.820312 75.710938 35.46875 76.597656 36.085938 77.503906 C 36.699219 78.398438 37.351562 79.261719 38.039062 80.101562 C 39.402344 81.773438 40.941406 83.261719 42.734375 84.472656 C 44.707031 85.804688 46.921875 86.746094 49.136719 87.585938 C 51.449219 88.46875 53.824219 89.332031 56.226562 89.914062 C 56.660156 90.015625 56.820312 89.40625 56.414062 89.257812 " fill-opacity="1" fill-rule="nonzero"/><path fill="#1c8d40" d="M 105.289062 34.253906 C 104.816406 34.796875 104.320312 35.320312 103.910156 35.910156 C 103.734375 36.15625 104.109375 36.417969 104.316406 36.222656 C 104.816406 35.746094 105.246094 35.1875 105.695312 34.660156 C 105.933594 34.378906 105.527344 33.972656 105.289062 34.253906 " fill-opacity="1" fill-rule="nonzero"/><path fill="#1c8d40" d="M 106.882812 35.550781 C 106.324219 36.304688 105.699219 37.007812 105.15625 37.773438 C 105.003906 37.984375 105.355469 38.1875 105.503906 37.976562 C 106.046875 37.21875 106.503906 36.40625 107.035156 35.640625 C 107.097656 35.542969 106.949219 35.460938 106.882812 35.550781 " fill-opacity="1" fill-rule="nonzero"/><path fill="#1c8d40" d="M 107.226562 38.070312 C 106.980469 38.4375 106.738281 38.804688 106.488281 39.171875 C 106.261719 39.507812 106.003906 39.832031 105.894531 40.226562 C 105.835938 40.441406 106.09375 40.558594 106.242188 40.433594 C 106.558594 40.160156 106.738281 39.792969 106.953125 39.441406 C 107.183594 39.0625 107.414062 38.6875 107.644531 38.3125 C 107.808594 38.046875 107.398438 37.8125 107.226562 38.070312 " fill-opacity="1" fill-rule="nonzero"/><path fill="#1c8d40" d="M 107.828125 40.808594 C 107.503906 41.242188 107.160156 41.664062 106.867188 42.117188 C 106.6875 42.398438 107.109375 42.734375 107.332031 42.480469 C 107.703125 42.046875 108.03125 41.582031 108.371094 41.125 C 108.613281 40.800781 108.066406 40.488281 107.828125 40.808594 " fill-opacity="1" fill-rule="nonzero"/><path fill="#1c8d40" d="M 107.945312 44.667969 C 107.84375 44.566406 107.667969 44.566406 107.566406 44.667969 L 107.074219 45.15625 C 106.972656 45.261719 106.972656 45.433594 107.074219 45.535156 C 107.179688 45.640625 107.355469 45.640625 107.457031 45.535156 L 107.945312 45.050781 C 108.050781 44.949219 108.050781 44.769531 107.945312 44.667969 " fill-opacity="1" fill-rule="nonzero"/><path fill="#1c8d40" d="M 37.246094 68.269531 C 36.796875 68.714844 36.402344 69.25 36.195312 69.851562 C 36.097656 70.140625 36.546875 70.332031 36.691406 70.058594 C 36.957031 69.546875 37.222656 69.074219 37.632812 68.65625 C 37.878906 68.402344 37.496094 68.023438 37.246094 68.269531 " fill-opacity="1" fill-rule="nonzero"/><path fill="#1c8d40" d="M 39.546875 69.589844 C 39.035156 70.125 38.578125 70.710938 38.214844 71.363281 C 37.886719 71.953125 37.523438 72.652344 37.507812 73.339844 C 37.5 73.574219 37.839844 73.664062 37.949219 73.460938 C 38.265625 72.890625 38.414062 72.238281 38.722656 71.65625 C 39.046875 71.039062 39.449219 70.476562 39.917969 69.957031 C 40.140625 69.710938 39.78125 69.34375 39.546875 69.589844 " fill-opacity="1" fill-rule="nonzero"/><path fill="#1c8d40" d="M 40.679688 71.546875 C 40.238281 72.894531 39.472656 74.332031 39.496094 75.78125 C 39.5 76.007812 39.789062 76.023438 39.871094 75.828125 C 40.140625 75.171875 40.210938 74.40625 40.34375 73.710938 C 40.476562 73 40.582031 72.273438 40.78125 71.578125 C 40.800781 71.511719 40.699219 71.484375 40.679688 71.546875 " fill-opacity="1" fill-rule="nonzero"/><path fill="#1c8d40" d="M 42.785156 73.550781 C 42.253906 74.746094 41.808594 76.351562 42.1875 77.652344 C 42.269531 77.921875 42.652344 77.855469 42.667969 77.585938 C 42.703125 76.964844 42.636719 76.351562 42.714844 75.722656 C 42.796875 75.066406 42.972656 74.425781 43.230469 73.8125 C 43.359375 73.511719 42.921875 73.246094 42.785156 73.550781 " fill-opacity="1" fill-rule="nonzero"/><path fill="#1c8d40" d="M 44.707031 76.460938 C 44.332031 77.339844 44.148438 78.363281 44.519531 79.277344 C 44.605469 79.492188 44.992188 79.496094 44.96875 79.214844 C 44.894531 78.324219 44.886719 77.523438 45.238281 76.6875 C 45.367188 76.386719 44.839844 76.160156 44.707031 76.460938 " fill-opacity="1" fill-rule="nonzero"/><path fill="#1c8d40" d="M 47.9375 80.382812 C 47.640625 79.820312 47.582031 79.21875 47.804688 78.621094 C 47.925781 78.304688 47.421875 78.171875 47.296875 78.480469 C 47.019531 79.195312 47.078125 79.992188 47.511719 80.628906 C 47.6875 80.886719 48.082031 80.664062 47.9375 80.382812 " fill-opacity="1" fill-rule="nonzero"/><path fill="#1c8d40" d="M 93.765625 78.933594 C 93.558594 78.667969 93.375 78.414062 93.386719 78.066406 C 93.394531 77.679688 92.792969 77.679688 92.789062 78.066406 C 92.777344 78.53125 92.976562 79.066406 93.421875 79.277344 C 93.621094 79.371094 93.9375 79.15625 93.765625 78.933594 " fill-opacity="1" fill-rule="nonzero"/><path fill="#1c8d40" d="M 95.03125 77.367188 C 94.8125 77.367188 94.625 77.082031 94.738281 76.890625 C 94.835938 76.726562 94.601562 76.539062 94.46875 76.683594 C 94.285156 76.898438 94.269531 77.183594 94.390625 77.4375 C 94.519531 77.714844 94.796875 77.84375 95.089844 77.796875 C 95.335938 77.757812 95.273438 77.363281 95.03125 77.367188 " fill-opacity="1" fill-rule="nonzero"/><path fill="#1c8d40" d="M 96.726562 75.972656 C 96.660156 75.855469 96.589844 75.753906 96.492188 75.65625 L 96.234375 75.398438 C 96.117188 75.285156 95.90625 75.277344 95.792969 75.398438 C 95.679688 75.523438 95.667969 75.71875 95.792969 75.839844 C 95.882812 75.921875 95.96875 76.007812 96.058594 76.089844 C 96.15625 76.1875 96.261719 76.257812 96.378906 76.324219 C 96.601562 76.445312 96.859375 76.199219 96.726562 75.972656 " fill-opacity="1" fill-rule="nonzero"/><path fill="#1c8d40" d="M 97.78125 74.527344 C 97.722656 74.410156 97.605469 74.328125 97.5 74.25 C 97.402344 74.183594 97.304688 74.113281 97.210938 74.042969 C 97.144531 73.996094 97.039062 74.027344 96.996094 74.085938 C 96.9375 74.15625 96.953125 74.238281 97.007812 74.304688 C 97.078125 74.394531 97.152344 74.484375 97.222656 74.578125 C 97.296875 74.667969 97.378906 74.773438 97.488281 74.824219 C 97.683594 74.90625 97.882812 74.730469 97.78125 74.527344 " fill-opacity="1" fill-rule="nonzero"/><path fill="#1c8d40" d="M 98.386719 72.949219 C 98.382812 72.929688 98.378906 72.914062 98.371094 72.894531 C 98.347656 72.828125 98.320312 72.785156 98.273438 72.734375 C 98.246094 72.699219 98.214844 72.667969 98.183594 72.640625 C 98.132812 72.582031 98.042969 72.550781 97.964844 72.550781 C 97.894531 72.550781 97.804688 72.582031 97.75 72.640625 C 97.695312 72.695312 97.65625 72.773438 97.65625 72.855469 C 97.660156 72.9375 97.6875 73.015625 97.75 73.074219 C 97.777344 73.101562 97.808594 73.132812 97.84375 73.164062 C 97.890625 73.207031 97.9375 73.238281 98 73.257812 C 98.019531 73.265625 98.039062 73.269531 98.058594 73.277344 C 98.25 73.335938 98.449219 73.140625 98.386719 72.949219 " fill-opacity="1" fill-rule="nonzero"/><g clip-path="url(#7b273d4be1)"><path fill="#16836e" d="M 59.699219 134.726562 C 59.433594 128.640625 54.921875 95.027344 51.472656 87.347656 C 48.027344 79.671875 43.121094 84.957031 39.871094 75.828125 C 36.617188 66.703125 33.699219 62.203125 27.332031 59.027344 C 20.96875 55.847656 15.128906 51.878906 13.003906 46.851562 C 10.882812 41.820312 5.578125 39.175781 5.578125 39.175781 C 5.578125 39.175781 9.558594 46.585938 9.292969 55.054688 C 9.027344 63.527344 10.621094 73.582031 16.191406 79.40625 C 21.761719 85.230469 27.332031 87.082031 28.128906 96.878906 C 28.925781 106.667969 40.066406 106.40625 46.699219 118.84375 C 53.332031 131.285156 57.308594 141.609375 57.308594 141.609375 L 59.699219 134.726562 " fill-opacity="1" fill-rule="nonzero"/></g><path fill="#1ca389" d="M 53.214844 120.578125 C 51.097656 115.28125 48.765625 110.070312 46.25 104.949219 C 43.726562 99.820312 41.019531 94.78125 38.011719 89.917969 C 36.332031 87.199219 34.53125 84.570312 32.648438 81.996094 C 32.835938 80.628906 32.839844 79.214844 32.847656 77.84375 C 32.859375 76.351562 32.804688 74.863281 32.683594 73.375 C 32.445312 70.371094 31.917969 67.398438 31.136719 64.488281 C 31.046875 64.148438 30.523438 64.289062 30.609375 64.632812 C 31.339844 67.527344 31.8125 70.480469 32.035156 73.457031 C 32.144531 74.914062 32.191406 76.378906 32.171875 77.84375 C 32.160156 78.933594 32.066406 80.015625 31.996094 81.105469 C 31.566406 80.527344 31.136719 79.953125 30.703125 79.382812 C 30.769531 79.328125 30.816406 79.25 30.820312 79.144531 C 31.082031 73.476562 29.945312 67.652344 27.875 62.390625 C 27.75 62.070312 27.226562 62.203125 27.351562 62.53125 C 28.34375 65.164062 29.082031 67.894531 29.5625 70.664062 C 30.023438 73.328125 30.167969 75.992188 30.175781 78.6875 C 29.429688 77.71875 28.679688 76.75 27.921875 75.789062 C 26.054688 73.421875 24.199219 71.050781 22.496094 68.570312 C 20.859375 66.195312 19.347656 63.742188 17.949219 61.222656 C 15.140625 56.167969 12.6875 50.886719 10.433594 45.566406 C 10.140625 44.871094 9.84375 44.179688 9.550781 43.480469 C 9.445312 43.226562 9.015625 43.332031 9.125 43.597656 C 11.316406 48.9375 13.457031 54.292969 16.058594 59.457031 C 17.363281 62.050781 18.769531 64.597656 20.316406 67.058594 C 21.058594 68.246094 21.847656 69.398438 22.660156 70.535156 C 21.855469 70.308594 21.054688 70.078125 20.269531 69.769531 C 19.132812 69.320312 18.039062 68.765625 17 68.132812 C 14.933594 66.878906 13.042969 65.28125 11.515625 63.410156 C 11.296875 63.144531 10.929688 63.519531 11.140625 63.78125 C 12.714844 65.746094 14.574219 67.421875 16.722656 68.742188 C 17.773438 69.386719 18.878906 69.933594 20.027344 70.390625 C 21.058594 70.804688 22.164062 71.195312 23.269531 71.378906 C 23.996094 72.371094 24.738281 73.351562 25.488281 74.324219 C 27.320312 76.699219 29.195312 79.035156 30.984375 81.441406 C 32.683594 83.722656 34.296875 86.058594 35.839844 88.449219 C 37.3125 90.722656 38.722656 93.035156 40.082031 95.378906 C 39.5 95.117188 38.914062 94.882812 38.328125 94.636719 C 37.351562 94.226562 36.375 93.8125 35.402344 93.398438 C 33.5 92.597656 31.59375 91.804688 29.691406 91.007812 C 29.375 90.875 29.136719 91.433594 29.457031 91.570312 C 31.378906 92.390625 33.300781 93.21875 35.226562 94.035156 C 36.179688 94.433594 37.128906 94.835938 38.078125 95.238281 C 38.910156 95.589844 39.738281 95.964844 40.589844 96.265625 C 41.082031 97.125 41.566406 97.988281 42.042969 98.859375 C 41.421875 98.621094 40.78125 98.421875 40.167969 98.191406 C 39.210938 97.832031 38.257812 97.453125 37.308594 97.070312 C 35.410156 96.300781 33.523438 95.492188 31.675781 94.609375 C 31.335938 94.449219 31.035156 94.949219 31.378906 95.117188 C 33.195312 96.003906 35.023438 96.867188 36.890625 97.648438 C 37.808594 98.039062 38.734375 98.40625 39.667969 98.765625 C 40.605469 99.125 41.570312 99.5625 42.550781 99.792969 C 43.191406 100.976562 43.816406 102.164062 44.429688 103.359375 C 47.039062 108.457031 49.359375 113.679688 51.691406 118.910156 C 51.980469 119.554688 52.265625 120.203125 52.550781 120.855469 C 52.714844 121.226562 53.367188 120.957031 53.214844 120.578125 " fill-opacity="1" fill-rule="nonzero"/><path fill="#1e545f" d="M 53.398438 141.765625 C 52.324219 137.867188 50.714844 134.125 48.734375 130.578125 C 48.8125 130.433594 48.820312 130.253906 48.6875 130.101562 C 46.867188 128.0625 46.703125 125.082031 48.050781 122.757812 C 48.640625 121.746094 49.460938 120.441406 48.730469 119.289062 C 48.21875 118.484375 47.015625 117.941406 46.300781 118.8125 C 46.039062 119.128906 45.90625 119.550781 45.746094 119.917969 C 45.546875 120.371094 45.351562 120.816406 45.152344 121.269531 C 44.84375 121.96875 44.535156 122.671875 44.226562 123.371094 C 43.347656 121.757812 44.089844 119.648438 44.515625 117.984375 C 44.78125 116.933594 45.035156 115.863281 45.035156 114.773438 C 45.035156 113.839844 44.835938 112.492188 44.027344 111.886719 C 42.992188 111.113281 42.199219 112.359375 42.042969 113.265625 C 41.921875 113.984375 41.929688 114.738281 41.886719 115.464844 C 41.832031 116.320312 41.785156 117.175781 41.742188 118.03125 C 41.714844 118.453125 41.609375 119.648438 40.9375 119.039062 C 40.4375 118.578125 40.398438 117.867188 40.417969 117.230469 C 40.476562 115.617188 41.023438 114.074219 41.363281 112.507812 C 41.886719 110.101562 41.742188 106.835938 39.195312 105.605469 C 38.964844 105.492188 38.746094 105.632812 38.71875 105.878906 C 38.378906 108.941406 38.007812 112.003906 37.65625 115.066406 C 36.316406 113.742188 36.449219 111.445312 36.648438 109.703125 C 36.878906 107.675781 37.234375 105.585938 36.394531 103.640625 C 35.972656 102.660156 35.242188 101.917969 34.230469 101.558594 C 34.011719 101.480469 33.804688 101.683594 33.792969 101.890625 C 33.691406 104.933594 33.546875 107.980469 33.449219 111.023438 C 31.792969 109.617188 31.589844 107.042969 31.617188 104.996094 C 31.644531 102.425781 31.769531 99.511719 29.886719 97.496094 C 29.71875 97.320312 29.464844 97.394531 29.335938 97.566406 C 28.257812 99.058594 28.582031 100.9375 28.980469 102.609375 C 29.355469 104.164062 29.976562 105.964844 29.460938 107.554688 C 28.210938 106.261719 27.835938 104.398438 27.613281 102.648438 C 27.355469 100.648438 27.308594 98.535156 26.496094 96.65625 C 26.070312 95.664062 25.410156 94.84375 24.515625 94.242188 C 24.25 94.0625 24 94.355469 24.039062 94.609375 C 24.457031 97.550781 24.84375 100.5 25.246094 103.445312 C 23.777344 102.316406 23.230469 100.324219 22.867188 98.5625 C 22.457031 96.539062 22.195312 94.421875 21 92.671875 C 20.371094 91.75 19.515625 91.046875 18.4375 90.722656 C 18.171875 90.644531 17.960938 90.898438 18.015625 91.144531 C 18.65625 93.996094 19.253906 96.867188 19.882812 99.722656 C 16.109375 96.445312 12.347656 93.160156 8.578125 89.882812 C 8.449219 89.765625 8.273438 89.734375 8.121094 89.820312 C 7.3125 90.289062 6.925781 91.285156 7.242188 92.167969 C 7.070312 92.214844 6.9375 92.367188 7.015625 92.585938 C 8.121094 95.703125 10.726562 97.816406 13.601562 99.273438 C 15.300781 100.132812 17.058594 100.859375 18.777344 101.667969 C 19.621094 102.0625 20.476562 102.476562 21.269531 102.96875 C 21.671875 103.222656 22.570312 104.109375 21.703125 104.394531 C 21.152344 104.570312 20.425781 104.316406 19.925781 104.097656 C 19.378906 103.851562 18.859375 103.6875 18.246094 103.742188 C 17.757812 103.78125 17.183594 103.9375 16.898438 104.371094 C 16.589844 104.835938 16.769531 105.425781 17.167969 105.78125 C 17.691406 106.242188 18.507812 106.464844 19.167969 106.652344 C 19.898438 106.855469 20.640625 106.992188 21.390625 107.105469 C 22.875 107.332031 24.382812 107.445312 25.832031 107.847656 C 26.527344 108.039062 27.199219 108.304688 27.808594 108.691406 C 28.195312 108.9375 29.597656 109.878906 28.972656 110.402344 C 28.441406 110.855469 27.265625 110.542969 26.664062 110.476562 C 25.625 110.375 24.585938 110.269531 23.546875 110.164062 C 22.800781 110.085938 21.703125 109.761719 21.058594 110.304688 C 20.582031 110.703125 20.601562 111.339844 20.835938 111.863281 C 21.429688 113.191406 23.066406 113.789062 24.351562 114.210938 C 27.367188 115.207031 30.609375 115.152344 33.644531 116.074219 C 35.03125 116.496094 36.84375 117.214844 37.5625 118.574219 C 37.933594 119.273438 37.746094 120.042969 36.949219 120.285156 C 36.214844 120.507812 35.460938 120.273438 34.785156 119.980469 C 34.023438 119.652344 33.277344 119.269531 32.433594 119.207031 C 31.742188 119.15625 30.984375 119.433594 30.8125 120.175781 C 30.460938 121.710938 32.433594 122.703125 33.601562 123.058594 C 36.40625 123.90625 39.941406 123.03125 42.253906 125.226562 C 42.652344 125.601562 42.925781 126.042969 43.078125 126.546875 C 42.042969 126.855469 40.988281 126.9375 39.902344 126.800781 C 39.554688 126.757812 39.402344 127.25 39.625 127.472656 C 41.09375 128.90625 43.085938 129.570312 44.949219 130.335938 C 46.589844 131.007812 48.625 131.933594 49.214844 133.78125 C 49.253906 133.898438 49.332031 133.96875 49.425781 134 C 50.660156 136.582031 51.695312 139.25 52.5625 141.996094 C 52.726562 142.523438 53.546875 142.304688 53.398438 141.765625 " fill-opacity="1" fill-rule="nonzero"/><g clip-path="url(#a5e3959d34)"><path fill="#f27949" d="M 95.246094 129.167969 C 95.246094 129.167969 96.191406 88.621094 97.84375 73.164062 C 99.492188 57.703125 104.800781 63.527344 107.453125 53.46875 C 110.105469 43.410156 112.226562 47.117188 118.0625 39.175781 C 123.902344 31.234375 126.023438 28.058594 128.675781 25.941406 C 131.328125 23.820312 138.757812 21.175781 138.757812 21.175781 C 138.757812 21.175781 135.042969 29.644531 134.511719 39.703125 C 133.980469 49.761719 136.105469 51.878906 129.738281 59.292969 C 123.371094 66.703125 120.660156 66.90625 119.363281 77.65625 C 118.0625 88.410156 95.246094 129.167969 95.246094 129.167969 " fill-opacity="1" fill-rule="nonzero"/></g><path fill="#dd6f3b" d="M 132.683594 27.917969 C 130.625 31.28125 128.597656 34.652344 126.644531 38.070312 C 126.589844 35.34375 126.738281 32.65625 127.3125 29.976562 C 127.390625 29.617188 126.84375 29.464844 126.761719 29.824219 C 126.113281 32.695312 125.746094 35.695312 125.945312 38.644531 C 125.957031 38.792969 126.039062 38.894531 126.144531 38.945312 C 125.519531 40.054688 124.898438 41.164062 124.289062 42.28125 C 123.640625 43.46875 123.007812 44.660156 122.375 45.859375 C 121.847656 43.035156 121.503906 40.199219 121.546875 37.320312 C 121.554688 36.9375 120.960938 36.9375 120.949219 37.320312 C 120.835938 40.363281 121.019531 43.441406 121.714844 46.414062 C 121.75 46.5625 121.84375 46.644531 121.953125 46.671875 C 120.160156 50.121094 118.4375 53.605469 116.769531 57.113281 C 115.242188 60.347656 113.769531 63.601562 112.355469 66.882812 C 112.394531 66.574219 112.433594 66.261719 112.46875 65.949219 C 112.652344 64.304688 112.699219 62.636719 112.636719 60.984375 C 112.519531 57.6875 111.933594 54.410156 110.925781 51.273438 C 110.785156 50.835938 110.101562 51.019531 110.234375 51.460938 C 111.195312 54.578125 111.726562 57.804688 111.824219 61.066406 C 111.875 62.671875 111.804688 64.273438 111.65625 65.871094 C 111.578125 66.6875 111.46875 67.5 111.335938 68.308594 C 111.238281 68.871094 111.117188 69.441406 111.023438 70.007812 C 110.695312 70.792969 110.363281 71.585938 110.042969 72.371094 C 107.9375 77.503906 105.96875 82.691406 104.136719 87.921875 C 102.304688 93.152344 100.589844 98.433594 99.085938 103.765625 C 98.898438 104.429688 98.710938 105.09375 98.527344 105.757812 C 98.363281 106.359375 99.289062 106.613281 99.464844 106.015625 C 101.007812 100.71875 102.640625 95.445312 104.417969 90.222656 C 106.199219 84.976562 108.125 79.773438 110.179688 74.625 C 112.234375 69.488281 114.425781 64.410156 116.734375 59.386719 C 117.128906 58.535156 117.523438 57.6875 117.925781 56.839844 C 117.984375 56.839844 118.046875 56.824219 118.105469 56.78125 C 120.113281 55.339844 122.132812 53.945312 124.3125 52.777344 C 126.503906 51.601562 128.796875 50.625 131.160156 49.847656 C 131.59375 49.707031 131.410156 49.019531 130.96875 49.164062 C 128.5625 49.925781 126.222656 50.894531 123.984375 52.0625 C 122.117188 53.039062 120.277344 54.136719 118.597656 55.421875 C 120.359375 51.734375 122.1875 48.082031 124.089844 44.464844 C 126.660156 39.582031 129.328125 34.75 132.074219 29.960938 C 132.417969 29.363281 132.777344 28.773438 133.132812 28.179688 C 133.304688 27.894531 132.859375 27.636719 132.683594 27.917969 " fill-opacity="1" fill-rule="nonzero"/><path fill="#dd6f3b" d="M 128.347656 54.324219 C 126.15625 54.800781 124.027344 55.554688 122.03125 56.570312 C 121.035156 57.078125 120.078125 57.660156 119.160156 58.300781 C 118.242188 58.941406 117.320312 59.617188 116.574219 60.460938 C 116.335938 60.734375 116.660156 61.242188 116.992188 61 C 117.871094 60.355469 118.6875 59.636719 119.578125 59.003906 C 120.46875 58.375 121.398438 57.804688 122.363281 57.289062 C 124.3125 56.25 126.378906 55.472656 128.527344 54.972656 C 128.949219 54.875 128.773438 54.230469 128.347656 54.324219 " fill-opacity="1" fill-rule="nonzero"/><path fill="#16836e" d="M 66.863281 70.144531 L 78.003906 141.269531 L 117.800781 141.875 L 123.636719 73.15625 L 66.863281 70.144531 " fill-opacity="1" fill-rule="nonzero"/><path fill="#16836e" d="M 63.148438 65.378906 C 64.742188 65.378906 127.882812 69.082031 127.882812 69.082031 L 127.347656 77.554688 L 61.554688 73.847656 L 63.148438 65.378906 " fill-opacity="1" fill-rule="nonzero"/><path fill="#1ca389" d="M 127.648438 74.003906 C 127.621094 74.699219 127.574219 75.390625 127.503906 76.078125 C 127.5 76.101562 127.5 76.128906 127.5 76.15625 C 123.398438 75.632812 119.261719 75.339844 115.148438 74.988281 C 110.859375 74.617188 106.5625 74.292969 102.269531 74.003906 C 93.644531 73.425781 85.011719 73.039062 76.378906 72.753906 C 71.648438 72.601562 66.917969 72.433594 62.1875 72.34375 C 62.308594 71.585938 62.445312 70.828125 62.59375 70.074219 C 62.832031 68.882812 63.113281 67.707031 63.429688 66.542969 C 63.746094 66.277344 64.230469 66.207031 64.609375 66.183594 C 65.589844 66.125 66.601562 66.269531 67.582031 66.328125 L 74.019531 66.722656 C 78.371094 66.988281 82.722656 67.253906 87.070312 67.519531 C 95.800781 68.054688 104.53125 68.566406 113.257812 69.125 C 118.023438 69.433594 122.792969 69.789062 127.5625 70.035156 C 127.671875 71.355469 127.699219 72.683594 127.648438 74.003906 Z M 127.011719 77.929688 C 126.582031 78.214844 125.921875 78.058594 125.453125 78.03125 C 124.757812 77.988281 124.0625 77.945312 123.363281 77.902344 C 122.03125 77.824219 120.699219 77.738281 119.363281 77.65625 C 114.027344 77.328125 108.691406 77.007812 103.351562 76.695312 C 92.730469 76.066406 82.117188 75.421875 71.496094 74.761719 C 69.992188 74.667969 68.492188 74.574219 66.988281 74.480469 C 66.238281 74.433594 65.488281 74.378906 64.734375 74.328125 C 64.019531 74.273438 63.261719 74.300781 62.554688 74.171875 C 62.238281 74.117188 62.054688 73.988281 62.03125 73.621094 C 62.023438 73.492188 62.03125 73.355469 62.046875 73.21875 C 70.613281 73.269531 79.164062 73.46875 87.726562 73.902344 C 96.355469 74.339844 104.980469 74.941406 113.59375 75.683594 C 116.015625 75.894531 118.433594 76.113281 120.851562 76.351562 C 123.042969 76.5625 125.230469 76.832031 127.421875 77.015625 C 127.367188 77.402344 127.257812 77.765625 127.011719 77.929688 Z M 120.375 103.5 C 119.605469 111.757812 118.835938 120.015625 118.089844 128.277344 C 117.882812 130.570312 117.675781 132.863281 117.46875 135.15625 C 117.289062 137.132812 117.023438 139.035156 116.507812 140.925781 C 114.359375 140.851562 112.195312 140.917969 110.046875 140.898438 C 107.546875 140.875 105.050781 140.847656 102.558594 140.824219 C 97.566406 140.785156 92.578125 140.71875 87.585938 140.609375 C 84.953125 140.546875 82.324219 140.484375 79.691406 140.410156 C 78.417969 140.03125 78.019531 138.339844 77.792969 137.058594 C 77.410156 134.898438 77.09375 132.71875 76.742188 130.550781 C 76.023438 126.09375 75.300781 121.636719 74.578125 117.175781 C 73.125 108.257812 71.675781 99.347656 70.207031 90.433594 C 69.382812 85.433594 68.566406 80.433594 67.726562 75.4375 C 67.722656 75.425781 67.722656 75.421875 67.722656 75.414062 C 67.824219 75.421875 67.925781 75.425781 68.027344 75.433594 C 73.628906 75.773438 79.230469 76.101562 84.828125 76.457031 C 96.105469 77.171875 107.386719 77.914062 118.667969 78.609375 C 119.988281 78.691406 121.304688 78.769531 122.625 78.855469 C 121.882812 87.070312 121.136719 95.285156 120.375 103.5 Z M 128.457031 74.855469 C 128.578125 73.089844 128.546875 71.324219 128.402344 69.5625 C 128.382812 69.28125 128.21875 69.082031 127.960938 69.066406 C 123.5 68.742188 119.027344 68.527344 114.5625 68.265625 C 110.097656 68 105.632812 67.722656 101.164062 67.441406 C 92.234375 66.886719 83.300781 66.332031 74.367188 65.777344 C 71.875 65.621094 69.382812 65.46875 66.886719 65.3125 C 66.125 65.265625 64.800781 65.050781 63.769531 65.308594 C 63.828125 64.835938 63.148438 64.65625 62.992188 65.164062 C 62.929688 65.378906 62.867188 65.59375 62.804688 65.808594 C 62.546875 66.058594 62.367188 66.402344 62.304688 66.867188 C 62.285156 67.027344 62.332031 67.160156 62.40625 67.265625 C 62.199219 68.050781 62.015625 68.84375 61.84375 69.644531 C 61.703125 70.308594 61.574219 70.980469 61.457031 71.652344 C 61.34375 72.324219 61.144531 73.070312 61.195312 73.761719 C 61.304688 75.214844 62.722656 75.132812 63.695312 75.1875 C 64.824219 75.253906 65.945312 75.3125 67.074219 75.375 C 67.035156 75.453125 67.015625 75.542969 67.035156 75.648438 C 68.445312 84.808594 69.890625 93.96875 71.351562 103.117188 C 72.808594 112.265625 74.265625 121.414062 75.738281 130.5625 C 75.945312 131.84375 76.152344 133.128906 76.355469 134.414062 C 76.539062 135.5625 76.6875 136.726562 76.933594 137.859375 C 77.28125 139.476562 78.003906 141.222656 79.625 141.460938 C 79.8125 141.488281 79.945312 141.382812 80.019531 141.226562 C 89.679688 141.515625 99.339844 141.769531 109 141.890625 C 110.390625 141.90625 111.785156 141.921875 113.179688 141.9375 C 114.28125 141.949219 115.386719 141.988281 116.484375 141.980469 C 116.679688 142.171875 117.003906 142.21875 117.167969 141.96875 C 117.289062 141.964844 117.410156 141.960938 117.53125 141.957031 C 118.089844 141.929688 118.097656 141.019531 117.550781 140.96875 C 118.015625 139.507812 118.199219 137.9375 118.355469 136.40625 C 118.5625 134.375 118.722656 132.347656 118.90625 130.316406 C 119.277344 126.140625 119.644531 121.960938 120.011719 117.785156 C 120.730469 109.492188 121.441406 101.199219 122.175781 92.910156 C 122.585938 88.238281 123.003906 83.570312 123.417969 78.902344 C 124.152344 78.945312 124.890625 78.992188 125.628906 79.039062 C 126.210938 79.074219 126.871094 79.152344 127.410156 78.820312 C 127.945312 78.492188 128.128906 77.878906 128.210938 77.238281 C 128.222656 77.179688 128.226562 77.121094 128.238281 77.058594 C 128.507812 76.976562 128.527344 76.546875 128.320312 76.34375 C 128.375 75.847656 128.421875 75.351562 128.457031 74.855469 " fill-opacity="1" fill-rule="nonzero"/><g clip-path="url(#f9a47f34d6)"><path fill="#f27949" d="M 54.921875 138.433594 C 54.128906 139.230469 47.496094 143.992188 49.351562 143.992188 C 51.207031 143.992188 61.820312 143.992188 61.820312 143.992188 L 58.902344 138.960938 L 54.921875 138.433594 " fill-opacity="1" fill-rule="nonzero"/></g><g clip-path="url(#d8c87aa604)"><path fill="#f27949" d="M 90.210938 137.109375 C 90.210938 137.109375 101.085938 142.667969 100.023438 143.199219 C 98.960938 143.726562 85.964844 142.402344 85.964844 142.402344 L 85.699219 137.375 L 90.210938 137.109375 " fill-opacity="1" fill-rule="nonzero"/></g><path fill="#f4b88e" d="M 53.066406 75.703125 C 53.066406 75.703125 55.453125 79.9375 55.71875 82.320312 C 55.984375 84.703125 55.1875 87.082031 55.1875 87.082031 C 55.1875 87.082031 53.597656 80.730469 53.332031 82.054688 C 53.066406 83.378906 52.800781 92.375 51.738281 92.640625 C 50.679688 92.90625 46.699219 87.875 46.433594 84.964844 C 46.167969 82.054688 47.230469 76.496094 47.230469 76.496094 L 53.066406 75.703125 " fill-opacity="1" fill-rule="nonzero"/><path fill="#ffffff" d="M 106.101562 94.46875 C 105.695312 94.753906 105.261719 94.96875 104.804688 95.136719 C 104.800781 95.128906 104.800781 95.125 104.796875 95.117188 C 103.535156 92.847656 102.144531 90.40625 99.707031 89.21875 C 98.589844 88.671875 97.347656 88.429688 96.117188 88.671875 C 94.835938 88.929688 93.746094 89.691406 92.777344 90.523438 C 91.519531 91.605469 90.382812 92.835938 89.355469 94.132812 C 89.207031 94.320312 89.328125 94.5625 89.496094 94.621094 C 89.417969 94.738281 89.417969 94.914062 89.5625 95.019531 C 89.945312 95.300781 90.332031 95.582031 90.71875 95.859375 C 91.097656 96.140625 91.472656 96.460938 91.882812 96.695312 C 92.003906 96.761719 92.136719 96.714844 92.214844 96.621094 C 92.320312 96.65625 92.445312 96.628906 92.523438 96.515625 C 93.519531 95.011719 94.769531 93.171875 96.765625 93.054688 C 97.796875 92.992188 98.59375 93.574219 99.371094 94.171875 C 100.097656 94.726562 100.792969 95.324219 101.457031 95.949219 C 100.8125 96.433594 100.269531 97.011719 99.832031 97.691406 C 99.738281 97.84375 99.832031 98.039062 99.992188 98.089844 C 101.597656 98.539062 103.183594 99.085938 104.710938 99.753906 C 104.867188 99.824219 105.078125 99.78125 105.125 99.585938 C 105.492188 97.964844 105.953125 96.367188 106.542969 94.808594 C 106.632812 94.570312 106.3125 94.324219 106.101562 94.46875 " fill-opacity="1" fill-rule="nonzero"/><path fill="#ffffff" d="M 101.203125 116.113281 C 101.121094 115.625 101.113281 115.144531 101.15625 114.65625 C 101.164062 114.65625 101.171875 114.65625 101.175781 114.65625 C 103.777344 114.5 106.582031 114.300781 108.703125 112.617188 C 109.679688 111.847656 110.433594 110.832031 110.746094 109.617188 C 111.0625 108.359375 110.84375 107.046875 110.511719 105.8125 C 110.074219 104.214844 109.445312 102.664062 108.71875 101.179688 C 108.613281 100.964844 108.34375 100.96875 108.214844 101.09375 C 108.140625 100.976562 107.984375 100.898438 107.828125 100.984375 C 107.40625 101.210938 106.988281 101.433594 106.566406 101.660156 C 106.152344 101.882812 105.703125 102.082031 105.316406 102.351562 C 105.199219 102.433594 105.183594 102.574219 105.238281 102.683594 C 105.160156 102.765625 105.132812 102.882812 105.203125 103.007812 C 106.128906 104.546875 107.253906 106.472656 106.503906 108.3125 C 106.113281 109.269531 105.246094 109.734375 104.367188 110.179688 C 103.554688 110.59375 102.71875 110.960938 101.863281 111.292969 C 101.703125 110.503906 101.414062 109.765625 100.984375 109.078125 C 100.890625 108.929688 100.671875 108.925781 100.558594 109.054688 C 99.460938 110.304688 98.285156 111.496094 97.019531 112.585938 C 96.890625 112.695312 96.839844 112.90625 96.992188 113.027344 C 98.300781 114.0625 99.550781 115.164062 100.703125 116.363281 C 100.882812 116.546875 101.242188 116.363281 101.203125 116.113281 " fill-opacity="1" fill-rule="nonzero"/><path fill="#ffffff" d="M 84.238281 98.828125 C 84.675781 99.066406 85.054688 99.355469 85.414062 99.6875 C 85.410156 99.695312 85.40625 99.699219 85.402344 99.707031 C 83.929688 101.847656 82.363281 104.179688 82.390625 106.886719 C 82.402344 108.128906 82.734375 109.34375 83.507812 110.335938 C 84.304688 111.359375 85.476562 111.992188 86.660156 112.488281 C 88.191406 113.128906 89.800781 113.585938 91.421875 113.925781 C 91.660156 113.976562 91.820312 113.757812 91.800781 113.582031 C 91.9375 113.597656 92.097656 113.519531 92.128906 113.34375 C 92.207031 112.875 92.285156 112.40625 92.367188 111.9375 C 92.445312 111.472656 92.5625 110.996094 92.589844 110.527344 C 92.597656 110.386719 92.492188 110.289062 92.375 110.261719 C 92.359375 110.152344 92.28125 110.050781 92.140625 110.035156 C 90.351562 109.816406 88.140625 109.523438 87.144531 107.796875 C 86.628906 106.902344 86.792969 105.933594 86.980469 104.972656 C 87.15625 104.074219 87.375 103.1875 87.640625 102.316406 C 88.363281 102.675781 89.125 102.898438 89.933594 102.984375 C 90.105469 103.003906 90.246094 102.832031 90.210938 102.664062 C 89.902344 101.03125 89.679688 99.371094 89.597656 97.707031 C 89.589844 97.539062 89.457031 97.367188 89.261719 97.414062 C 87.640625 97.808594 86.003906 98.117188 84.34375 98.285156 C 84.089844 98.3125 84.015625 98.707031 84.238281 98.828125 " fill-opacity="1" fill-rule="nonzero"/><path fill="#cfe9ed" d="M 65.269531 28.058594 C 65.269531 28.058594 61.289062 30.703125 56.515625 32.292969 C 51.738281 33.882812 51.738281 36.527344 50.679688 39.703125 C 49.617188 42.878906 43.515625 50.289062 42.984375 55.320312 C 42.453125 60.347656 44.839844 75.175781 46.167969 75.96875 C 47.496094 76.761719 53.332031 76.761719 53.066406 75.703125 C 52.800781 74.640625 51.738281 62.464844 52.273438 60.347656 C 52.800781 58.234375 56.515625 51.351562 57.046875 53.734375 C 57.574219 56.113281 58.105469 66.171875 57.308594 69.351562 C 56.515625 72.527344 54.660156 74.378906 56.78125 74.378906 C 58.902344 74.378906 85.964844 75.4375 85.433594 73.054688 C 84.902344 70.671875 84.902344 54.261719 86.230469 54.527344 C 87.554688 54.789062 94.71875 65.378906 94.71875 65.378906 C 96.578125 67.230469 101.085938 68.023438 102.144531 67.761719 C 104.417969 67.195312 108.777344 68.023438 108.777344 66.964844 C 108.777344 64.035156 100.023438 58.234375 98.960938 53.996094 C 97.902344 49.761719 90.472656 36.261719 88.351562 33.351562 C 86.230469 30.4375 76.945312 28.851562 76.945312 28.851562 L 65.269531 28.058594 " fill-opacity="1" fill-rule="nonzero"/><path fill="#f4b88e" d="M 67.261719 11.910156 C 67.394531 12.703125 68.1875 24.085938 66.332031 26.867188 C 64.472656 29.644531 62.882812 30.304688 62.882812 30.304688 C 62.882812 30.304688 70.574219 36.261719 78.136719 32.824219 C 79.976562 31.988281 75.085938 28.851562 75.351562 19.851562 C 75.492188 15.089844 67.261719 11.910156 67.261719 11.910156 " fill-opacity="1" fill-rule="nonzero"/><path fill="#f0a083" d="M 66.804688 25.816406 C 68.949219 29.59375 73.066406 29.042969 76.195312 26.363281 C 75.714844 24.21875 75.351562 21.890625 75.351562 19.851562 C 75.351562 16.886719 72.21875 14.539062 69.847656 13.183594 L 67.367188 13.148438 C 67.5625 15.960938 67.804688 22.683594 66.804688 25.816406 " fill-opacity="1" fill-rule="nonzero"/><path fill="#f4b88e" d="M 68.320312 5.953125 C 66.335938 7.9375 65.800781 14.691406 66.066406 17.070312 C 66.332031 19.457031 68.574219 21.769531 69.777344 22.632812 C 70.707031 23.292969 72.796875 23.386719 73.757812 23.027344 C 75.589844 22.347656 76.644531 20 77.34375 18.261719 C 78.402344 15.617188 77.738281 10.585938 76.675781 7.941406 C 75.617188 5.292969 69.382812 4.894531 68.320312 5.953125 " fill-opacity="1" fill-rule="nonzero"/><path fill="#313749" d="M 66.863281 3.839844 C 66.863281 3.839844 64.207031 3.308594 63.675781 5.558594 C 63.148438 7.808594 65.402344 8.207031 64.339844 10.71875 C 63.28125 13.234375 66.199219 17.070312 66.199219 15.882812 C 66.199219 14.691406 66.332031 10.324219 67.394531 9.527344 C 68.453125 8.734375 68.984375 6.085938 68.984375 6.085938 C 68.984375 6.085938 69.648438 7.675781 72.699219 7.808594 C 75.75 7.941406 77.207031 9.527344 77.476562 11.117188 C 77.738281 12.703125 77.871094 16.542969 77.871094 16.542969 C 77.871094 16.542969 79.332031 14.292969 79.066406 12.4375 C 78.800781 10.585938 79.730469 10.324219 79.996094 8.207031 C 80.257812 6.085938 79.199219 3.839844 77.34375 2.78125 C 75.484375 1.722656 69.648438 0 68.71875 1.324219 C 67.789062 2.648438 66.863281 3.839844 66.863281 3.839844 " fill-opacity="1" fill-rule="nonzero"/><path fill="#313749" d="M 69.515625 11.378906 C 69.210938 11.34375 68.894531 11.363281 68.585938 11.363281 C 68.050781 11.363281 68.050781 12.195312 68.585938 12.195312 C 68.894531 12.195312 69.210938 12.21875 69.515625 12.179688 C 70.03125 12.121094 70.03125 11.4375 69.515625 11.378906 " fill-opacity="1" fill-rule="nonzero"/><path fill="#313749" d="M 76.328125 12.128906 C 76.144531 12.03125 75.960938 12.046875 75.753906 12.046875 L 75.21875 12.046875 C 74.707031 12.046875 74.707031 12.835938 75.21875 12.835938 L 75.753906 12.835938 C 75.960938 12.835938 76.144531 12.851562 76.328125 12.753906 C 76.566406 12.628906 76.566406 12.253906 76.328125 12.128906 " fill-opacity="1" fill-rule="nonzero"/><path fill="#f0a083" d="M 72.5625 15.542969 C 72.175781 15.609375 71.175781 15.921875 71.351562 15.179688 C 71.464844 14.671875 71.703125 14.222656 71.789062 13.699219 C 71.941406 12.726562 71.875 11.746094 71.59375 10.804688 C 71.507812 10.519531 71.082031 10.636719 71.152344 10.925781 C 71.328125 11.636719 71.386719 12.371094 71.292969 13.101562 C 71.210938 13.78125 70.949219 14.367188 70.738281 15.011719 C 70.589844 15.464844 70.695312 15.941406 71.09375 16.234375 C 71.613281 16.617188 72.308594 16.496094 72.855469 16.230469 C 73.269531 16.027344 72.957031 15.476562 72.5625 15.542969 " fill-opacity="1" fill-rule="nonzero"/><path fill="#f4b88e" d="M 102.144531 67.761719 C 102.144531 67.761719 104.269531 65.113281 107.714844 64.585938 C 111.167969 64.054688 118.859375 67.496094 116.738281 68.023438 C 114.613281 68.554688 102.144531 67.761719 102.144531 67.761719 " fill-opacity="1" fill-rule="nonzero"/><path fill="#313749" d="M 57.839844 74.640625 C 57.839844 74.640625 54.921875 103.496094 54.660156 108.523438 C 54.394531 113.554688 52.273438 137.902344 53.066406 138.699219 C 53.863281 139.492188 59.433594 139.492188 59.964844 138.699219 C 60.496094 137.902344 64.742188 111.699219 65.535156 109.316406 C 66.332031 106.9375 71.109375 84.703125 71.109375 84.703125 C 71.109375 84.703125 83.046875 136.84375 84.105469 137.375 C 85.167969 137.902344 91.535156 137.636719 91.535156 137.636719 L 84.105469 73.847656 L 58.902344 74.640625 L 57.839844 74.640625 " fill-opacity="1" fill-rule="nonzero"/><g clip-path="url(#78ba5adab2)"><path fill="#1e545f" d="M 137.855469 55.03125 C 137.386719 54.867188 136.890625 55.066406 136.449219 55.21875 C 135.980469 55.378906 135.515625 55.5625 135.066406 55.769531 C 133.191406 56.605469 131.484375 57.777344 129.898438 59.082031 C 128.378906 60.332031 126.996094 61.71875 125.628906 63.125 C 125.585938 63.160156 125.542969 63.195312 125.5 63.226562 C 126.355469 62.039062 127.023438 60.726562 127.472656 59.328125 C 127.699219 58.609375 128.929688 54.546875 127.132812 54.890625 C 127.019531 54.910156 126.933594 55.015625 126.898438 55.117188 C 126.289062 57.058594 125.671875 58.996094 125.050781 60.933594 C 124.5625 62.441406 124.160156 63.980469 123.144531 65.21875 C 122.910156 65.429688 122.675781 65.644531 122.449219 65.855469 C 122.796875 64.847656 123.082031 63.820312 123.296875 62.769531 C 123.429688 62.089844 123.542969 61.40625 123.621094 60.722656 C 123.671875 60.300781 123.625 59.8125 123.335938 59.476562 C 123.058594 59.15625 122.601562 59.140625 122.304688 59.453125 C 121.96875 59.800781 121.816406 60.410156 121.699219 60.863281 C 121.433594 61.917969 121.410156 63.023438 121.328125 64.105469 C 121.226562 65.359375 120.996094 66.5 120.273438 67.554688 C 120.1875 67.679688 120.226562 67.8125 120.316406 67.898438 C 119.75 68.472656 119.214844 69.070312 118.753906 69.710938 C 118.550781 69.992188 118.984375 70.28125 119.21875 70.070312 C 119.882812 69.46875 120.496094 68.808594 121.117188 68.160156 C 121.695312 68.226562 122.292969 68.167969 122.875 68.125 C 123.488281 68.074219 124.101562 68.007812 124.710938 67.917969 C 125.515625 67.800781 127.246094 67.753906 127.199219 66.574219 C 127.183594 66.128906 126.835938 65.855469 126.40625 65.847656 C 125.828125 65.835938 125.195312 65.988281 124.636719 66.097656 C 123.953125 66.234375 123.285156 66.417969 122.632812 66.640625 C 123.140625 66.164062 123.65625 65.695312 124.179688 65.234375 C 125.734375 64.351562 127.472656 64.011719 129.28125 64.101562 C 130.84375 64.179688 132.742188 64.375 133.90625 63.101562 C 134 63 134.027344 62.808594 133.90625 62.707031 C 132.246094 61.3125 130.074219 61.660156 128.148438 62.242188 C 128.667969 61.726562 129.304688 61.339844 129.964844 61.015625 C 130.976562 60.527344 132.046875 60.152344 133.09375 59.738281 C 134.234375 59.292969 135.378906 58.847656 136.519531 58.398438 C 137.308594 58.089844 138.257812 57.714844 138.558594 56.847656 C 138.789062 56.195312 138.5625 55.285156 137.855469 55.03125 " fill-opacity="1" fill-rule="nonzero"/></g></svg>